<svg width="319" height="34" viewBox="0 0 319 34" fill="none" xmlns="http://www.w3.org/2000/svg">
<g filter="url(#filter0_b_7_136)">
<path d="M21.2241 9H18.2298C18.0527 8.13873 17.7428 7.3821 17.3001 6.73011C16.8654 6.07812 16.3342 5.53078 15.7063 5.08807C15.0865 4.63731 14.3983 4.29924 13.6417 4.07386C12.8851 3.84848 12.0962 3.73579 11.2752 3.73579C9.77805 3.73579 8.42176 4.11411 7.20632 4.87074C5.99893 5.62737 5.03705 6.74219 4.32067 8.2152C3.61233 9.68821 3.25817 11.4953 3.25817 13.6364C3.25817 15.7775 3.61233 17.5845 4.32067 19.0575C5.03705 20.5305 5.99893 21.6454 7.20632 22.402C8.42176 23.1586 9.77805 23.5369 11.2752 23.5369C12.0962 23.5369 12.8851 23.4242 13.6417 23.1989C14.3983 22.9735 15.0865 22.6394 15.7063 22.1967C16.3342 21.746 16.8654 21.1946 17.3001 20.5426C17.7428 19.8826 18.0527 19.1259 18.2298 18.2727H21.2241C20.9987 19.5365 20.5882 20.6674 19.9925 21.6655C19.3969 22.6636 18.6564 23.5128 17.771 24.2131C16.8855 24.9053 15.8915 25.4325 14.7887 25.7947C13.694 26.157 12.5228 26.3381 11.2752 26.3381C9.16631 26.3381 7.29084 25.8229 5.64879 24.7926C4.00675 23.7623 2.71484 22.2973 1.77308 20.3977C0.831321 18.4981 0.36044 16.2443 0.36044 13.6364C0.36044 11.0284 0.831321 8.77462 1.77308 6.875C2.71484 4.97538 4.00675 3.51042 5.64879 2.48011C7.29084 1.44981 9.16631 0.934658 11.2752 0.934658C12.5228 0.934658 13.694 1.11577 14.7887 1.47798C15.8915 1.8402 16.8855 2.37145 17.771 3.07173C18.6564 3.76397 19.3969 4.60914 19.9925 5.60724C20.5882 6.5973 20.9987 7.72822 21.2241 9ZM33.2104 26.3864C31.5362 26.3864 30.0672 25.9879 28.8034 25.1911C27.5478 24.3942 26.5658 23.2794 25.8574 21.8466C25.1571 20.4138 24.807 18.7396 24.807 16.8239C24.807 14.892 25.1571 13.2057 25.8574 11.7649C26.5658 10.3241 27.5478 9.20526 28.8034 8.40838C30.0672 7.61151 31.5362 7.21307 33.2104 7.21307C34.8846 7.21307 36.3496 7.61151 37.6053 8.40838C38.869 9.20526 39.851 10.3241 40.5513 11.7649C41.2596 13.2057 41.6138 14.892 41.6138 16.8239C41.6138 18.7396 41.2596 20.4138 40.5513 21.8466C39.851 23.2794 38.869 24.3942 37.6053 25.1911C36.3496 25.9879 34.8846 26.3864 33.2104 26.3864ZM33.2104 23.8267C34.4822 23.8267 35.5286 23.5007 36.3496 22.8487C37.1706 22.1967 37.7784 21.3395 38.1728 20.277C38.5672 19.2145 38.7644 18.0634 38.7644 16.8239C38.7644 15.5843 38.5672 14.4292 38.1728 13.3587C37.7784 12.2881 37.1706 11.4228 36.3496 10.7628C35.5286 10.1027 34.4822 9.77273 33.2104 9.77273C31.9386 9.77273 30.8922 10.1027 30.0712 10.7628C29.2502 11.4228 28.6425 12.2881 28.248 13.3587C27.8536 14.4292 27.6564 15.5843 27.6564 16.8239C27.6564 18.0634 27.8536 19.2145 28.248 20.277C28.6425 21.3395 29.2502 22.1967 30.0712 22.8487C30.8922 23.5007 31.9386 23.8267 33.2104 23.8267ZM48.8129 14.8438V26H45.9634V7.45454H48.7163V10.3523H48.9577C49.3924 9.41051 50.0524 8.65388 50.9379 8.08239C51.8233 7.50284 52.9663 7.21307 54.3668 7.21307C55.6225 7.21307 56.7212 7.47064 57.663 7.98579C58.6048 8.4929 59.3372 9.26562 59.8604 10.304C60.3836 11.3343 60.6452 12.6383 60.6452 14.2159V26H57.7958V14.4091C57.7958 12.9522 57.4175 11.8172 56.6609 11.0043C55.9042 10.1832 54.8659 9.77273 53.5458 9.77273C52.6362 9.77273 51.8233 9.96993 51.1069 10.3643C50.3986 10.7588 49.8391 11.3343 49.4286 12.0909C49.0181 12.8475 48.8129 13.7652 48.8129 14.8438ZM73.9174 7.45454V9.86932H64.3066V7.45454H73.9174ZM67.1078 3.01136H69.9572V20.6875C69.9572 21.4924 70.0739 22.0961 70.3074 22.4986C70.5488 22.893 70.8547 23.1586 71.225 23.2955C71.6033 23.4242 72.0017 23.4886 72.4203 23.4886C72.7342 23.4886 72.9918 23.4725 73.193 23.4403C73.3942 23.4001 73.5552 23.3679 73.676 23.3438L74.2555 25.9034C74.0623 25.9759 73.7927 26.0483 73.4466 26.1207C73.1004 26.2012 72.6618 26.2415 72.1305 26.2415C71.3256 26.2415 70.5368 26.0684 69.764 25.7223C68.9993 25.3762 68.3635 24.849 67.8564 24.1406C67.3573 23.4323 67.1078 22.5388 67.1078 21.4602V3.01136ZM78.2037 26V7.45454H81.0531V26H78.2037ZM79.6525 4.36364C79.0971 4.36364 78.6182 4.17448 78.2157 3.79616C77.8213 3.41785 77.6241 2.96307 77.6241 2.43182C77.6241 1.90057 77.8213 1.44579 78.2157 1.06747C78.6182 0.689157 79.0971 0.5 79.6525 0.5C80.2079 0.5 80.6828 0.689157 81.0772 1.06747C81.4797 1.44579 81.6809 1.90057 81.6809 2.43182C81.6809 2.96307 81.4797 3.41785 81.0772 3.79616C80.6828 4.17448 80.2079 4.36364 79.6525 4.36364ZM89.1214 14.8438V26H86.272V7.45454H89.0249V10.3523H89.2663C89.701 9.41051 90.361 8.65388 91.2464 8.08239C92.1319 7.50284 93.2749 7.21307 94.6754 7.21307C95.9311 7.21307 97.0298 7.47064 97.9716 7.98579C98.9134 8.4929 99.6458 9.26562 100.169 10.304C100.692 11.3343 100.954 12.6383 100.954 14.2159V26H98.1044V14.4091C98.1044 12.9522 97.7261 11.8172 96.9695 11.0043C96.2128 10.1832 95.1745 9.77273 93.8544 9.77273C92.9448 9.77273 92.1319 9.96993 91.4155 10.3643C90.7071 10.7588 90.1477 11.3343 89.7372 12.0909C89.3267 12.8475 89.1214 13.7652 89.1214 14.8438ZM117.848 18.4176V7.45454H120.698V26H117.848V22.8608H117.655C117.22 23.8026 116.544 24.6035 115.627 25.2635C114.709 25.9155 113.55 26.2415 112.149 26.2415C110.99 26.2415 109.96 25.9879 109.058 25.4808C108.157 24.9657 107.449 24.1929 106.933 23.1626C106.418 22.1243 106.161 20.8163 106.161 19.2386V7.45454H109.01V19.0455C109.01 20.3977 109.388 21.4763 110.145 22.2812C110.91 23.0862 111.884 23.4886 113.067 23.4886C113.775 23.4886 114.496 23.3075 115.228 22.9453C115.969 22.5831 116.588 22.0277 117.088 21.2791C117.595 20.5305 117.848 19.5767 117.848 18.4176ZM133.692 26.3864C131.905 26.3864 130.364 25.992 129.068 25.2031C127.78 24.4062 126.786 23.2955 126.086 21.8707C125.393 20.438 125.047 18.7718 125.047 16.8722C125.047 14.9725 125.393 13.2983 126.086 11.8494C126.786 10.3925 127.76 9.25758 129.007 8.4446C130.263 7.62358 131.728 7.21307 133.402 7.21307C134.368 7.21307 135.322 7.37405 136.264 7.69602C137.206 8.01799 138.063 8.54119 138.836 9.26562C139.608 9.98201 140.224 10.9318 140.683 12.1151C141.142 13.2983 141.371 14.7552 141.371 16.4858V17.6932H127.076V15.2301H138.473C138.473 14.1837 138.264 13.25 137.846 12.429C137.435 11.608 136.847 10.96 136.083 10.4851C135.326 10.0102 134.433 9.77273 133.402 9.77273C132.267 9.77273 131.285 10.0545 130.456 10.6179C129.635 11.1733 129.003 11.8977 128.561 12.7912C128.118 13.6847 127.897 14.6425 127.897 15.6648V17.3068C127.897 18.7074 128.138 19.8946 128.621 20.8686C129.112 21.8345 129.792 22.571 130.662 23.0781C131.531 23.5772 132.541 23.8267 133.692 23.8267C134.441 23.8267 135.117 23.7221 135.721 23.5128C136.332 23.2955 136.859 22.9735 137.302 22.5469C137.745 22.1122 138.087 21.5729 138.328 20.929L141.081 21.7017C140.792 22.6354 140.305 23.4564 139.62 24.1648C138.936 24.8651 138.091 25.4124 137.085 25.8068C136.079 26.1932 134.948 26.3864 133.692 26.3864ZM160.146 26L153.385 1.27273H156.427L161.595 21.4119H161.836L167.1 1.27273H170.481L175.745 21.4119H175.987L181.154 1.27273H184.197L177.436 26H174.345L168.887 6.29545H168.694L163.237 26H160.146ZM191.272 26.4347C190.097 26.4347 189.031 26.2133 188.073 25.7706C187.115 25.3198 186.354 24.6719 185.791 23.8267C185.227 22.9735 184.946 21.9432 184.946 20.7358C184.946 19.6733 185.155 18.812 185.574 18.152C185.992 17.4839 186.551 16.9607 187.252 16.5824C187.952 16.2041 188.725 15.9223 189.57 15.7372C190.423 15.544 191.28 15.3911 192.142 15.2784C193.269 15.1335 194.182 15.0249 194.882 14.9524C195.591 14.8719 196.106 14.7391 196.428 14.554C196.758 14.3688 196.923 14.0469 196.923 13.5881V13.4915C196.923 12.3002 196.597 11.3745 195.945 10.7145C195.301 10.0545 194.323 9.72443 193.011 9.72443C191.651 9.72443 190.584 10.0223 189.811 10.6179C189.039 11.2135 188.495 11.8494 188.181 12.5256L185.477 11.5597C185.96 10.4328 186.604 9.5554 187.409 8.92756C188.222 8.29167 189.107 7.84896 190.065 7.59943C191.031 7.34186 191.981 7.21307 192.914 7.21307C193.51 7.21307 194.194 7.28551 194.967 7.4304C195.748 7.56723 196.5 7.85298 197.225 8.28764C197.957 8.7223 198.565 9.37831 199.048 10.2557C199.531 11.133 199.772 12.3082 199.772 13.7812V26H196.923V23.4886H196.778C196.585 23.8911 196.263 24.3217 195.812 24.7805C195.361 25.2393 194.762 25.6297 194.013 25.9517C193.265 26.2737 192.351 26.4347 191.272 26.4347ZM191.707 23.875C192.834 23.875 193.784 23.6536 194.556 23.2109C195.337 22.7682 195.925 22.1967 196.319 21.4964C196.722 20.7962 196.923 20.0597 196.923 19.2869V16.679C196.802 16.8239 196.537 16.9567 196.126 17.0774C195.724 17.1901 195.257 17.2907 194.725 17.3793C194.202 17.4598 193.691 17.5322 193.192 17.5966C192.701 17.6529 192.303 17.7012 191.997 17.7415C191.256 17.8381 190.564 17.995 189.92 18.2124C189.284 18.4216 188.769 18.7396 188.375 19.1662C187.988 19.5848 187.795 20.1562 187.795 20.8807C187.795 21.8707 188.161 22.6193 188.894 23.1264C189.634 23.6255 190.572 23.875 191.707 23.875ZM213.039 7.45454V9.86932H203.428V7.45454H213.039ZM206.229 3.01136H209.078V20.6875C209.078 21.4924 209.195 22.0961 209.428 22.4986C209.67 22.893 209.976 23.1586 210.346 23.2955C210.724 23.4242 211.123 23.4886 211.541 23.4886C211.855 23.4886 212.113 23.4725 212.314 23.4403C212.515 23.4001 212.676 23.3679 212.797 23.3438L213.377 25.9034C213.183 25.9759 212.914 26.0483 212.568 26.1207C212.222 26.2012 211.783 26.2415 211.252 26.2415C210.447 26.2415 209.658 26.0684 208.885 25.7223C208.12 25.3762 207.485 24.849 206.977 24.1406C206.478 23.4323 206.229 22.5388 206.229 21.4602V3.01136ZM224.66 26.3864C222.921 26.3864 221.424 25.9759 220.168 25.1548C218.912 24.3338 217.947 23.2029 217.27 21.7621C216.594 20.3213 216.256 18.6752 216.256 16.8239C216.256 14.9403 216.602 13.2782 217.295 11.8374C217.995 10.3885 218.969 9.25758 220.216 8.4446C221.472 7.62358 222.937 7.21307 224.611 7.21307C225.915 7.21307 227.09 7.45455 228.137 7.9375C229.183 8.42045 230.041 9.09659 230.709 9.96591C231.377 10.8352 231.791 11.8494 231.952 13.0085H229.103C228.885 12.1634 228.403 11.4148 227.654 10.7628C226.913 10.1027 225.915 9.77273 224.66 9.77273C223.549 9.77273 222.575 10.0625 221.738 10.642C220.909 11.2135 220.261 12.0225 219.794 13.0689C219.335 14.1072 219.106 15.3267 219.106 16.7273C219.106 18.16 219.331 19.4077 219.782 20.4702C220.241 21.5327 220.885 22.3577 221.714 22.9453C222.551 23.5329 223.533 23.8267 224.66 23.8267C225.4 23.8267 226.072 23.6979 226.676 23.4403C227.28 23.1828 227.791 22.8125 228.209 22.3295C228.628 21.8466 228.926 21.267 229.103 20.5909H231.952C231.791 21.6856 231.393 22.6716 230.757 23.549C230.129 24.4183 229.296 25.1106 228.258 25.6257C227.227 26.1328 226.028 26.3864 224.66 26.3864ZM238.967 14.8438V26H236.118V1.27273H238.967V10.3523H239.209C239.643 9.39441 240.295 8.63376 241.165 8.07031C242.042 7.49882 243.209 7.21307 244.666 7.21307C245.93 7.21307 247.037 7.46662 247.986 7.97372C248.936 8.47277 249.673 9.24148 250.196 10.2798C250.727 11.3101 250.993 12.6222 250.993 14.2159V26H248.143V14.4091C248.143 12.9361 247.761 11.7971 246.996 10.9922C246.24 10.1792 245.189 9.77273 243.845 9.77273C242.911 9.77273 242.074 9.96993 241.334 10.3643C240.601 10.7588 240.022 11.3343 239.595 12.0909C239.176 12.8475 238.967 13.7652 238.967 14.8438ZM256.206 26V7.45454H259.055V26H256.206ZM257.654 4.36364C257.099 4.36364 256.62 4.17448 256.218 3.79616C255.823 3.41785 255.626 2.96307 255.626 2.43182C255.626 1.90057 255.823 1.44579 256.218 1.06747C256.62 0.689157 257.099 0.5 257.654 0.5C258.21 0.5 258.685 0.689157 259.079 1.06747C259.482 1.44579 259.683 1.90057 259.683 2.43182C259.683 2.96307 259.482 3.41785 259.079 3.79616C258.685 4.17448 258.21 4.36364 257.654 4.36364ZM267.123 14.8438V26H264.274V7.45454H267.027V10.3523H267.268C267.703 9.41051 268.363 8.65388 269.248 8.08239C270.134 7.50284 271.277 7.21307 272.677 7.21307C273.933 7.21307 275.032 7.47064 275.974 7.98579C276.915 8.4929 277.648 9.26562 278.171 10.304C278.694 11.3343 278.956 12.6383 278.956 14.2159V26H276.106V14.4091C276.106 12.9522 275.728 11.8172 274.971 11.0043C274.215 10.1832 273.176 9.77273 271.856 9.77273C270.947 9.77273 270.134 9.96993 269.417 10.3643C268.709 10.7588 268.15 11.3343 267.739 12.0909C267.329 12.8475 267.123 13.7652 267.123 14.8438ZM291.648 33.3409C290.272 33.3409 289.089 33.1638 288.099 32.8097C287.109 32.4635 286.284 32.0047 285.624 31.4332C284.972 30.8698 284.452 30.2661 284.066 29.6222L286.336 28.0284C286.594 28.3665 286.92 28.7528 287.314 29.1875C287.708 29.6302 288.248 30.0125 288.932 30.3345C289.624 30.6645 290.53 30.8295 291.648 30.8295C293.146 30.8295 294.381 30.4673 295.355 29.7429C296.329 29.0185 296.816 27.8835 296.816 26.3381V22.571H296.575C296.365 22.9091 296.067 23.3277 295.681 23.8267C295.303 24.3177 294.755 24.7564 294.039 25.1428C293.331 25.5211 292.373 25.7102 291.165 25.7102C289.668 25.7102 288.324 25.3561 287.133 24.6477C285.95 23.9394 285.012 22.9091 284.32 21.5568C283.635 20.2045 283.293 18.5625 283.293 16.6307C283.293 14.7311 283.627 13.0769 284.295 11.6683C284.964 10.2517 285.893 9.15696 287.085 8.38423C288.276 7.60346 289.652 7.21307 291.214 7.21307C292.421 7.21307 293.379 7.4143 294.087 7.81676C294.804 8.21117 295.351 8.66193 295.729 9.16903C296.116 9.66809 296.414 10.0786 296.623 10.4006H296.913V7.45454H299.665V26.5312C299.665 28.125 299.303 29.4209 298.579 30.419C297.862 31.4252 296.897 32.1617 295.681 32.6286C294.474 33.1035 293.129 33.3409 291.648 33.3409ZM291.552 23.1506C292.695 23.1506 293.661 22.889 294.45 22.3658C295.238 21.8426 295.838 21.09 296.249 20.108C296.659 19.1259 296.864 17.9508 296.864 16.5824C296.864 15.2462 296.663 14.067 296.261 13.0447C295.858 12.0225 295.263 11.2216 294.474 10.642C293.685 10.0625 292.711 9.77273 291.552 9.77273C290.344 9.77273 289.338 10.0786 288.533 10.6903C287.737 11.3021 287.137 12.1231 286.734 13.1534C286.34 14.1837 286.143 15.3267 286.143 16.5824C286.143 17.8703 286.344 19.0092 286.746 19.9993C287.157 20.9813 287.761 21.754 288.558 22.3175C289.362 22.8729 290.361 23.1506 291.552 23.1506ZM306.958 26.1932C306.362 26.1932 305.851 25.9799 305.425 25.5533C304.998 25.1267 304.785 24.6155 304.785 24.0199C304.785 23.4242 304.998 22.9131 305.425 22.4865C305.851 22.0599 306.362 21.8466 306.958 21.8466C307.554 21.8466 308.065 22.0599 308.491 22.4865C308.918 22.9131 309.131 23.4242 309.131 24.0199C309.131 24.4143 309.031 24.7765 308.83 25.1065C308.636 25.4366 308.375 25.7022 308.045 25.9034C307.723 26.0966 307.361 26.1932 306.958 26.1932ZM316.321 26.1932C315.726 26.1932 315.215 25.9799 314.788 25.5533C314.361 25.1267 314.148 24.6155 314.148 24.0199C314.148 23.4242 314.361 22.9131 314.788 22.4865C315.215 22.0599 315.726 21.8466 316.321 21.8466C316.917 21.8466 317.428 22.0599 317.855 22.4865C318.281 22.9131 318.495 23.4242 318.495 24.0199C318.495 24.4143 318.394 24.7765 318.193 25.1065C318 25.4366 317.738 25.7022 317.408 25.9034C317.086 26.0966 316.724 26.1932 316.321 26.1932Z" fill="white"/>
<path d="M21.2241 9V10H22.4169L22.2087 8.8255L21.2241 9ZM18.2298 9L17.2502 9.20139L17.4144 10H18.2298V9ZM17.3001 6.73011L16.468 7.28483L16.4728 7.29186L17.3001 6.73011ZM15.7063 5.08807L15.1182 5.8968L15.1241 5.90111L15.13 5.90533L15.7063 5.08807ZM13.6417 4.07386L13.3562 5.03225L13.3562 5.03225L13.6417 4.07386ZM7.20632 4.87074L6.67784 4.02179L6.67531 4.02338L7.20632 4.87074ZM4.32067 8.2152L3.42137 7.77784L3.41945 7.78183L4.32067 8.2152ZM4.32067 19.0575L3.41944 19.4909L3.42138 19.4949L4.32067 19.0575ZM7.20632 22.402L6.6753 23.2494L6.67784 23.2509L7.20632 22.402ZM13.6417 23.1989L13.3562 22.2405L13.3562 22.2405L13.6417 23.1989ZM15.7063 22.1967L16.2876 23.0105L16.2895 23.0091L15.7063 22.1967ZM17.3001 20.5426L16.4696 19.9856L16.468 19.9879L17.3001 20.5426ZM18.2298 18.2727V17.2727H17.416L17.2506 18.0695L18.2298 18.2727ZM21.2241 18.2727L22.2085 18.4483L22.4182 17.2727H21.2241V18.2727ZM19.9925 21.6655L19.1338 21.153L19.1338 21.153L19.9925 21.6655ZM17.771 24.2131L18.3869 25.0009L18.3913 24.9974L17.771 24.2131ZM14.7887 25.7947L14.4766 24.8447L14.4746 24.8454L14.7887 25.7947ZM5.64879 24.7926L5.1173 25.6397L5.1173 25.6397L5.64879 24.7926ZM1.77308 20.3977L2.66902 19.9536L2.66902 19.9536L1.77308 20.3977ZM1.77308 6.875L0.877142 6.43083L1.77308 6.875ZM14.7887 1.47798L14.4746 2.42736L14.4766 2.42804L14.7887 1.47798ZM17.771 3.07173L17.1506 3.85608L17.155 3.85954L17.771 3.07173ZM19.9925 5.60724L19.1338 6.1197L19.1357 6.12276L19.9925 5.60724ZM21.2241 8H18.2298V10H21.2241V8ZM19.2093 8.79861C19.0087 7.82329 18.6522 6.94121 18.1274 6.16836L16.4728 7.29186C16.8334 7.82299 17.0966 8.45417 17.2502 9.20139L19.2093 8.79861ZM18.1321 6.17541C17.6305 5.42299 17.0132 4.78597 16.2826 4.27081L15.13 5.90533C15.6551 6.27559 16.1003 6.73326 16.468 7.28481L18.1321 6.17541ZM16.2945 4.27933C15.5803 3.75988 14.7891 3.37223 13.9272 3.11548L13.3562 5.03225C14.0075 5.22625 14.5928 5.51474 15.1182 5.8968L16.2945 4.27933ZM13.9272 3.11548C13.0742 2.86141 12.189 2.73579 11.2752 2.73579V4.73579C12.0035 4.73579 12.6959 4.83555 13.3562 5.03225L13.9272 3.11548ZM11.2752 2.73579C9.6002 2.73579 8.0593 3.16181 6.67784 4.02179L7.7348 5.71968C8.78421 5.06641 9.95591 4.73579 11.2752 4.73579V2.73579ZM6.67531 4.02338C5.28656 4.89366 4.20718 6.1621 3.42138 7.77784L5.21996 8.65256C5.86692 7.32227 6.71131 6.36108 7.73734 5.7181L6.67531 4.02338ZM3.41945 7.78183C2.62919 9.42521 2.25817 11.3898 2.25817 13.6364H4.25817C4.25817 11.6007 4.59548 9.95121 5.22188 8.64857L3.41945 7.78183ZM2.25817 13.6364C2.25817 15.8829 2.62919 17.8475 3.41945 19.4909L5.22188 18.6242C4.59548 17.3215 4.25817 15.672 4.25817 13.6364H2.25817ZM3.42138 19.4949C4.20718 21.1106 5.28656 22.3791 6.67531 23.2494L7.73734 21.5546C6.71131 20.9116 5.86692 19.9505 5.21996 18.6202L3.42138 19.4949ZM6.67784 23.2509C8.0593 24.1109 9.6002 24.5369 11.2752 24.5369V22.5369C9.95591 22.5369 8.78421 22.2063 7.7348 21.553L6.67784 23.2509ZM11.2752 24.5369C12.189 24.5369 13.0742 24.4113 13.9272 24.1572L13.3562 22.2405C12.6959 22.4372 12.0035 22.5369 11.2752 22.5369V24.5369ZM13.9272 24.1572C14.7858 23.9015 15.5746 23.5197 16.2876 23.0105L15.1251 21.383C14.5985 21.7591 14.0109 22.0455 13.3562 22.2405L13.9272 24.1572ZM16.2895 23.0091C17.0165 22.4871 17.6316 21.848 18.1321 21.0973L16.468 19.9879C16.0992 20.5412 15.6518 21.0048 15.1231 21.3844L16.2895 23.0091ZM18.1306 21.0996C18.6518 20.3225 19.0081 19.4434 19.2089 18.4759L17.2506 18.0695C17.0972 18.8085 16.8337 19.4427 16.4696 19.9856L18.1306 21.0996ZM18.2298 19.2727H21.2241V17.2727H18.2298V19.2727ZM20.2396 18.0972C20.0332 19.2543 19.6614 20.269 19.1338 21.153L20.8513 22.1779C21.515 21.0658 21.9642 19.8186 22.2085 18.4483L20.2396 18.0972ZM19.1338 21.153C18.5986 22.0499 17.9379 22.8061 17.1506 23.4287L18.3913 24.9974C19.3749 24.2195 20.1952 23.2773 20.8513 22.1779L19.1338 21.153ZM17.155 23.4253C16.3637 24.0439 15.4731 24.5174 14.4766 24.8447L15.1008 26.7448C16.3098 26.3477 17.4073 25.7667 18.3869 25.0009L17.155 23.4253ZM14.4746 24.8454C13.4892 25.1714 12.4248 25.3381 11.2752 25.3381V27.3381C12.6208 27.3381 13.8988 27.1425 15.1028 26.7441L14.4746 24.8454ZM11.2752 25.3381C9.33717 25.3381 7.64913 24.8672 6.18028 23.9455L5.1173 25.6397C6.93255 26.7787 8.99545 27.3381 11.2752 27.3381V25.3381ZM6.18028 23.9455C4.70907 23.0224 3.53676 21.7039 2.66902 19.9536L0.877142 20.8419C1.89293 22.8908 3.30442 24.5022 5.1173 25.6397L6.18028 23.9455ZM2.66902 19.9536C1.80964 18.2201 1.36044 16.125 1.36044 13.6364H-0.63956C-0.63956 16.3636 -0.147002 18.7761 0.877142 20.8419L2.66902 19.9536ZM1.36044 13.6364C1.36044 11.1477 1.80964 9.05262 2.66902 7.31917L0.877142 6.43083C-0.147002 8.49662 -0.63956 10.9091 -0.63956 13.6364H1.36044ZM2.66902 7.31917C3.53676 5.56887 4.70907 4.25029 6.18028 3.32718L5.1173 1.63305C3.30442 2.77054 1.89293 4.38189 0.877142 6.43083L2.66902 7.31917ZM6.18028 3.32718C7.64913 2.40555 9.33717 1.93466 11.2752 1.93466V-0.0653418C8.99545 -0.0653418 6.93255 0.494072 5.1173 1.63305L6.18028 3.32718ZM11.2752 1.93466C12.4248 1.93466 13.4892 2.10132 14.4746 2.42736L15.1028 0.528603C13.8988 0.130216 12.6208 -0.0653418 11.2752 -0.0653418V1.93466ZM14.4766 2.42804C15.4709 2.75462 16.36 3.23078 17.1506 3.85607L18.3913 2.2874C17.4111 1.51212 16.312 0.925776 15.1008 0.527921L14.4766 2.42804ZM17.155 3.85954C17.9399 4.47316 18.5992 5.22389 19.1338 6.1197L20.8513 5.09479C20.1946 3.99439 19.3728 3.05477 18.3869 2.28393L17.155 3.85954ZM19.1357 6.12276C19.6612 6.99629 20.0329 8.00911 20.2394 9.1745L22.2087 8.8255C21.9645 7.44733 21.5152 6.19832 20.8494 5.09172L19.1357 6.12276ZM28.8034 25.1911L28.2676 26.0354L28.2701 26.0369L28.8034 25.1911ZM25.8574 21.8466L24.959 22.2857L24.961 22.2898L25.8574 21.8466ZM25.8574 11.7649L24.96 11.3237L24.958 11.3278L25.8574 11.7649ZM28.8034 8.40838L28.2701 7.5625L28.2676 7.56405L28.8034 8.40838ZM37.6053 8.40838L37.0695 9.25271L37.0719 9.25425L37.6053 8.40838ZM40.5513 11.7649L39.6519 12.2021L39.6539 12.2061L40.5513 11.7649ZM40.5513 21.8466L39.6549 21.4034L39.6529 21.4075L40.5513 21.8466ZM37.6053 25.1911L37.0719 24.3452L37.0695 24.3467L37.6053 25.1911ZM36.3496 22.8487L35.7277 22.0656L35.7277 22.0656L36.3496 22.8487ZM38.1728 20.277L39.1103 20.625L39.1103 20.625L38.1728 20.277ZM38.1728 13.3587L39.1111 13.013L39.1111 13.013L38.1728 13.3587ZM36.3496 10.7628L36.9762 9.98341L36.9762 9.98341L36.3496 10.7628ZM30.0712 10.7628L29.4446 9.98341L29.4446 9.98341L30.0712 10.7628ZM28.248 13.3587L27.3097 13.013L27.3097 13.013L28.248 13.3587ZM28.248 20.277L27.3106 20.625L27.3106 20.625L28.248 20.277ZM30.0712 22.8487L30.6931 22.0656L30.6931 22.0656L30.0712 22.8487ZM33.2104 25.3864C31.7015 25.3864 30.4221 25.0295 29.3368 24.3452L28.2701 26.0369C29.7122 26.9463 31.3708 27.3864 33.2104 27.3864V25.3864ZM29.3393 24.3467C28.2498 23.6554 27.3873 22.6847 26.7539 21.4034L24.961 22.2898C25.7442 23.874 26.8457 25.133 28.2676 26.0354L29.3393 24.3467ZM26.7559 21.4075C26.1345 20.1363 25.807 18.6176 25.807 16.8239H23.807C23.807 18.8615 24.1798 20.6914 24.959 22.2857L26.7559 21.4075ZM25.807 16.8239C25.807 15.0127 26.135 13.4815 26.7568 12.2021L24.958 11.3278C24.1793 12.93 23.807 14.7713 23.807 16.8239H25.807ZM26.7548 12.2061C27.3887 10.9167 28.2512 9.94319 29.3393 9.25271L28.2676 7.56405C26.8443 8.46732 25.7428 9.73146 24.96 11.3237L26.7548 12.2061ZM29.3368 9.25425C30.4221 8.56989 31.7015 8.21307 33.2104 8.21307V6.21307C31.3708 6.21307 29.7122 6.65312 28.2701 7.56251L29.3368 9.25425ZM33.2104 8.21307C34.7195 8.21307 35.9936 8.56992 37.0695 9.25271L38.1411 7.56405C36.7057 6.65309 35.0498 6.21307 33.2104 6.21307V8.21307ZM37.0719 9.25425C38.1664 9.94444 39.027 10.9163 39.6519 12.2021L41.4507 11.3278C40.6751 9.73188 39.5716 8.46607 38.1387 7.56251L37.0719 9.25425ZM39.6539 12.2061C40.2824 13.4845 40.6138 15.0143 40.6138 16.8239H42.6138C42.6138 14.7698 42.2369 12.9269 41.4487 11.3237L39.6539 12.2061ZM40.6138 16.8239C40.6138 18.6161 40.2829 20.1332 39.6549 21.4034L41.4477 22.2898C42.2364 20.6945 42.6138 18.8631 42.6138 16.8239H40.6138ZM39.6529 21.4075C39.0284 22.6851 38.1679 23.6541 37.0719 24.3452L38.1387 26.0369C39.5702 25.1343 40.6736 23.8736 41.4497 22.2857L39.6529 21.4075ZM37.0695 24.3467C35.9936 25.0295 34.7195 25.3864 33.2104 25.3864V27.3864C35.0498 27.3864 36.7057 26.9463 38.1411 26.0354L37.0695 24.3467ZM33.2104 24.8267C34.6584 24.8267 35.9383 24.4523 36.9715 23.6318L35.7277 22.0656C35.1189 22.5491 34.306 22.8267 33.2104 22.8267V24.8267ZM36.9715 23.6318C37.947 22.8572 38.6577 21.8442 39.1103 20.625L37.2353 19.929C36.899 20.8347 36.3943 21.5363 35.7277 22.0656L36.9715 23.6318ZM39.1103 20.625C39.5497 19.4411 39.7644 18.1711 39.7644 16.8239H37.7644C37.7644 17.9558 37.5846 18.9878 37.2353 19.929L39.1103 20.625ZM39.7644 16.8239C39.7644 15.4765 39.5497 14.2034 39.1111 13.013L37.2344 13.7044C37.5847 14.655 37.7644 15.692 37.7644 16.8239H39.7644ZM39.1111 13.013C38.6594 11.7869 37.9502 10.7664 36.9762 9.98341L35.7231 11.5422C36.3911 12.0792 36.8973 12.7893 37.2344 13.7044L39.1111 13.013ZM36.9762 9.98341C35.9428 9.15269 34.6612 8.77273 33.2104 8.77273V10.7727C34.3032 10.7727 35.1143 11.0528 35.7231 11.5422L36.9762 9.98341ZM33.2104 8.77273C31.7596 8.77273 30.478 9.15269 29.4446 9.98341L30.6978 11.5422C31.3065 11.0528 32.1176 10.7727 33.2104 10.7727V8.77273ZM29.4446 9.98341C28.4706 10.7664 27.7614 11.7869 27.3097 13.013L29.1864 13.7044C29.5235 12.7893 30.0297 12.0792 30.6978 11.5422L29.4446 9.98341ZM27.3097 13.013C26.8711 14.2034 26.6564 15.4765 26.6564 16.8239H28.6564C28.6564 15.692 28.8362 14.655 29.1864 13.7044L27.3097 13.013ZM26.6564 16.8239C26.6564 18.1711 26.8711 19.4411 27.3106 20.625L29.1855 19.929C28.8362 18.9878 28.6564 17.9558 28.6564 16.8239H26.6564ZM27.3106 20.625C27.7632 21.8442 28.4738 22.8572 29.4493 23.6318L30.6931 22.0656C30.0265 21.5363 29.5218 20.8347 29.1855 19.929L27.3106 20.625ZM29.4493 23.6318C30.4825 24.4523 31.7625 24.8267 33.2104 24.8267V22.8267C32.1148 22.8267 31.3019 22.5491 30.6931 22.0656L29.4493 23.6318ZM48.8129 26V27H49.8129V26H48.8129ZM45.9634 26H44.9634V27H45.9634V26ZM45.9634 7.45454V6.45454H44.9634V7.45454H45.9634ZM48.7163 7.45454H49.7163V6.45454H48.7163V7.45454ZM48.7163 10.3523H47.7163V11.3523H48.7163V10.3523ZM48.9577 10.3523V11.3523H49.5976L49.8657 10.7713L48.9577 10.3523ZM50.9379 8.08239L51.4802 8.92259L51.4855 8.91909L50.9379 8.08239ZM57.663 7.98579L57.1831 8.86314L57.1889 8.86627L57.663 7.98579ZM59.8604 10.304L58.9674 10.754L58.9688 10.7568L59.8604 10.304ZM60.6452 26V27H61.6452V26H60.6452ZM57.7958 26H56.7958V27H57.7958V26ZM56.6609 11.0043L55.9255 11.6819L55.9288 11.6855L56.6609 11.0043ZM51.1069 10.3643L50.6246 9.48833L50.6204 9.49066L51.1069 10.3643ZM49.4286 12.0909L48.5497 11.614L48.5497 11.614L49.4286 12.0909ZM47.8129 14.8438V26H49.8129V14.8438H47.8129ZM48.8129 25H45.9634V27H48.8129V25ZM46.9634 26V7.45454H44.9634V26H46.9634ZM45.9634 8.45454H48.7163V6.45454H45.9634V8.45454ZM47.7163 7.45454V10.3523H49.7163V7.45454H47.7163ZM48.7163 11.3523H48.9577V9.35227H48.7163V11.3523ZM49.8657 10.7713C50.2195 10.0047 50.7514 9.39295 51.4802 8.92257L50.3956 7.2422C49.3535 7.91481 48.5653 8.81635 48.0498 9.93321L49.8657 10.7713ZM51.4855 8.91909C52.1632 8.4755 53.0991 8.21307 54.3668 8.21307V6.21307C52.8334 6.21307 51.4833 6.53018 50.3902 7.24569L51.4855 8.91909ZM54.3668 8.21307C55.4834 8.21307 56.4117 8.44115 57.1831 8.86312L58.1429 7.10847C57.0308 6.50014 55.7616 6.21307 54.3668 6.21307V8.21307ZM57.1889 8.86627C57.9344 9.26767 58.528 9.88191 58.9674 10.754L60.7535 9.854C60.1465 8.64934 59.2751 7.71812 58.1371 7.10532L57.1889 8.86627ZM58.9688 10.7568C59.3996 11.6051 59.6452 12.7411 59.6452 14.2159H61.6452C61.6452 12.5355 61.3677 11.0635 60.7521 9.8512L58.9688 10.7568ZM59.6452 14.2159V26H61.6452V14.2159H59.6452ZM60.6452 25H57.7958V27H60.6452V25ZM58.7958 26V14.4091H56.7958V26H58.7958ZM58.7958 14.4091C58.7958 12.7804 58.37 11.3728 57.3929 10.323L55.9288 11.6855C56.465 12.2616 56.7958 13.124 56.7958 14.4091H58.7958ZM57.3962 10.3266C56.4157 9.26257 55.0898 8.77273 53.5458 8.77273V10.7727C54.642 10.7727 55.3928 11.1039 55.9255 11.6819L57.3962 10.3266ZM53.5458 8.77273C52.4869 8.77273 51.5047 9.00376 50.6246 9.48834L51.5892 11.2404C52.1418 10.9361 52.7856 10.7727 53.5458 10.7727V8.77273ZM50.6204 9.49066C49.7358 9.9832 49.0448 10.7013 48.5497 11.614L50.3076 12.5678C50.6334 11.9672 51.0613 11.5343 51.5934 11.238L50.6204 9.49066ZM48.5497 11.614C48.0421 12.5496 47.8129 13.64 47.8129 14.8438H49.8129C49.8129 13.8903 49.9941 13.1455 50.3076 12.5678L48.5497 11.614ZM73.9174 7.45454H74.9174V6.45454H73.9174V7.45454ZM73.9174 9.86932V10.8693H74.9174V9.86932H73.9174ZM64.3066 9.86932H63.3066V10.8693H64.3066V9.86932ZM64.3066 7.45454V6.45454H63.3066V7.45454H64.3066ZM67.1078 3.01136V2.01136H66.1078V3.01136H67.1078ZM69.9572 3.01136H70.9572V2.01136H69.9572V3.01136ZM70.3074 22.4986L69.4423 23.0003L69.4483 23.0106L69.4545 23.0207L70.3074 22.4986ZM71.225 23.2955L70.8783 24.2334L70.8905 24.2379L70.9027 24.2421L71.225 23.2955ZM73.193 23.4403L73.351 24.4278L73.3701 24.4247L73.3891 24.4209L73.193 23.4403ZM73.676 23.3438L74.6513 23.1229L74.436 22.1719L73.4798 22.3632L73.676 23.3438ZM74.2555 25.9034L74.6066 26.8397L75.4235 26.5334L75.2308 25.6826L74.2555 25.9034ZM73.4466 26.1207L73.2417 25.1419L73.2308 25.1442L73.22 25.1467L73.4466 26.1207ZM69.764 25.7223L69.3517 26.6333L69.3552 26.6349L69.764 25.7223ZM67.8564 24.1406L67.0389 24.7166L67.0432 24.7227L67.8564 24.1406ZM72.9174 7.45454V9.86932H74.9174V7.45454H72.9174ZM73.9174 8.86932H64.3066V10.8693H73.9174V8.86932ZM65.3066 9.86932V7.45454H63.3066V9.86932H65.3066ZM64.3066 8.45454H73.9174V6.45454H64.3066V8.45454ZM67.1078 4.01136H69.9572V2.01136H67.1078V4.01136ZM68.9572 3.01136V20.6875H70.9572V3.01136H68.9572ZM68.9572 20.6875C68.9572 21.5563 69.0774 22.3712 69.4423 23.0003L71.1724 21.9969C71.0704 21.8211 70.9572 21.4285 70.9572 20.6875H68.9572ZM69.4545 23.0207C69.7923 23.5724 70.2626 24.0059 70.8783 24.2334L71.5716 22.3575C71.4468 22.3113 71.3054 22.2136 71.1602 21.9764L69.4545 23.0207ZM70.9027 24.2421C71.3896 24.4079 71.8973 24.4886 72.4203 24.4886V22.4886C72.1061 22.4886 71.8169 22.4406 71.5472 22.3488L70.9027 24.2421ZM72.4203 24.4886C72.7621 24.4886 73.0776 24.4715 73.351 24.4278L73.035 22.4529C72.906 22.4735 72.7063 22.4886 72.4203 22.4886V24.4886ZM73.3891 24.4209C73.5904 24.3807 73.7513 24.3485 73.8721 24.3243L73.4798 22.3632C73.3591 22.3873 73.1981 22.4195 72.9969 22.4598L73.3891 24.4209ZM72.7006 23.5646L73.2802 26.1242L75.2308 25.6826L74.6513 23.1229L72.7006 23.5646ZM73.9044 24.9671C73.7806 25.0135 73.5678 25.0737 73.2417 25.1419L73.6514 27.0995C74.0176 27.0229 74.344 26.9382 74.6066 26.8397L73.9044 24.9671ZM73.22 25.1467C72.975 25.2037 72.6191 25.2415 72.1305 25.2415V27.2415C72.7044 27.2415 73.2259 27.1987 73.6731 27.0947L73.22 25.1467ZM72.1305 25.2415C71.4738 25.2415 70.8238 25.1012 70.1728 24.8097L69.3552 26.6349C70.2497 27.0356 71.1774 27.2415 72.1305 27.2415V25.2415ZM70.1764 24.8113C69.5781 24.5405 69.0783 24.1295 68.6695 23.5585L67.0432 24.7227C67.6487 25.5684 68.4206 26.2119 69.3517 26.6333L70.1764 24.8113ZM68.6738 23.5647C68.3199 23.0623 68.1078 22.3836 68.1078 21.4602H66.1078C66.1078 22.6941 66.3947 23.8023 67.0389 24.7166L68.6738 23.5647ZM68.1078 21.4602V3.01136H66.1078V21.4602H68.1078ZM78.2037 26H77.2037V27H78.2037V26ZM78.2037 7.45454V6.45454H77.2037V7.45454H78.2037ZM81.0531 7.45454H82.0531V6.45454H81.0531V7.45454ZM81.0531 26V27H82.0531V26H81.0531ZM78.2157 3.79616L77.5235 4.51788L77.5308 4.52479L78.2157 3.79616ZM78.2157 1.06747L77.5308 0.338805L77.5235 0.34579L78.2157 1.06747ZM81.0772 1.06747L80.385 1.78919L80.3923 1.7961L81.0772 1.06747ZM81.0772 3.79616L80.3923 3.0675L80.385 3.07448L81.0772 3.79616ZM79.2037 26V7.45454H77.2037V26H79.2037ZM78.2037 8.45454H81.0531V6.45454H78.2037V8.45454ZM80.0531 7.45454V26H82.0531V7.45454H80.0531ZM81.0531 25H78.2037V27H81.0531V25ZM79.6525 3.36364C79.3501 3.36364 79.1165 3.27046 78.9006 3.06754L77.5308 4.52479C78.1199 5.0785 78.8442 5.36364 79.6525 5.36364V3.36364ZM78.908 3.07448C78.7038 2.87865 78.6241 2.68193 78.6241 2.43182H76.6241C76.6241 3.24421 76.9388 3.95705 77.5235 4.51785L78.908 3.07448ZM78.6241 2.43182C78.6241 2.18171 78.7038 1.98498 78.908 1.78915L77.5235 0.34579C76.9388 0.906591 76.6241 1.61943 76.6241 2.43182H78.6241ZM78.9006 1.7961C79.1165 1.59317 79.3501 1.5 79.6525 1.5V-0.5C78.8442 -0.5 78.1199 -0.214861 77.5308 0.338842L78.9006 1.7961ZM79.6525 1.5C79.9546 1.5 80.1801 1.59265 80.385 1.78915L81.7695 0.345789C81.1855 -0.214333 80.4613 -0.5 79.6525 -0.5V1.5ZM80.3923 1.7961C80.6027 1.99388 80.6809 2.18863 80.6809 2.43182H82.6809C82.6809 1.61251 82.3567 0.897695 81.7621 0.338844L80.3923 1.7961ZM80.6809 2.43182C80.6809 2.675 80.6027 2.86976 80.3923 3.06754L81.7621 4.52479C82.3567 3.96594 82.6809 3.25113 82.6809 2.43182H80.6809ZM80.385 3.07448C80.1801 3.27099 79.9546 3.36364 79.6525 3.36364V5.36364C80.4613 5.36364 81.1855 5.07797 81.7695 4.51784L80.385 3.07448ZM89.1214 26V27H90.1214V26H89.1214ZM86.272 26H85.272V27H86.272V26ZM86.272 7.45454V6.45454H85.272V7.45454H86.272ZM89.0249 7.45454H90.0249V6.45454H89.0249V7.45454ZM89.0249 10.3523H88.0249V11.3523H89.0249V10.3523ZM89.2663 10.3523V11.3523H89.9062L90.1743 10.7713L89.2663 10.3523ZM91.2464 8.08239L91.7888 8.92259L91.7941 8.91909L91.2464 8.08239ZM97.9716 7.98579L97.4917 8.86314L97.4975 8.86627L97.9716 7.98579ZM100.169 10.304L99.276 10.754L99.2774 10.7568L100.169 10.304ZM100.954 26V27H101.954V26H100.954ZM98.1044 26H97.1044V27H98.1044V26ZM96.9695 11.0043L96.2341 11.6819L96.2374 11.6855L96.9695 11.0043ZM91.4155 10.3643L90.9332 9.48833L90.929 9.49066L91.4155 10.3643ZM89.7372 12.0909L88.8583 11.614L88.8583 11.614L89.7372 12.0909ZM88.1214 14.8438V26H90.1214V14.8438H88.1214ZM89.1214 25H86.272V27H89.1214V25ZM87.272 26V7.45454H85.272V26H87.272ZM86.272 8.45454H89.0249V6.45454H86.272V8.45454ZM88.0249 7.45454V10.3523H90.0249V7.45454H88.0249ZM89.0249 11.3523H89.2663V9.35227H89.0249V11.3523ZM90.1743 10.7713C90.5281 10.0047 91.06 9.39295 91.7887 8.92257L90.7041 7.2422C89.6621 7.91481 88.8739 8.81635 88.3584 9.93321L90.1743 10.7713ZM91.7941 8.91909C92.4718 8.4755 93.4077 8.21307 94.6754 8.21307V6.21307C93.142 6.21307 91.7919 6.53018 90.6988 7.24569L91.7941 8.91909ZM94.6754 8.21307C95.792 8.21307 96.7203 8.44115 97.4917 8.86312L98.4515 7.10847C97.3394 6.50014 96.0702 6.21307 94.6754 6.21307V8.21307ZM97.4975 8.86627C98.243 9.26767 98.8366 9.88191 99.276 10.754L101.062 9.854C100.455 8.64934 99.5837 7.71812 98.4457 7.10532L97.4975 8.86627ZM99.2774 10.7568C99.7082 11.6051 99.9538 12.7411 99.9538 14.2159H101.954C101.954 12.5355 101.676 11.0635 101.061 9.8512L99.2774 10.7568ZM99.9538 14.2159V26H101.954V14.2159H99.9538ZM100.954 25H98.1044V27H100.954V25ZM99.1044 26V14.4091H97.1044V26H99.1044ZM99.1044 14.4091C99.1044 12.7804 98.6786 11.3728 97.7015 10.323L96.2374 11.6855C96.7736 12.2616 97.1044 13.124 97.1044 14.4091H99.1044ZM97.7048 10.3266C96.7243 9.26257 95.3984 8.77273 93.8544 8.77273V10.7727C94.9506 10.7727 95.7014 11.1039 96.2341 11.6819L97.7048 10.3266ZM93.8544 8.77273C92.7955 8.77273 91.8133 9.00376 90.9332 9.48834L91.8978 11.2404C92.4504 10.9361 93.0942 10.7727 93.8544 10.7727V8.77273ZM90.929 9.49066C90.0444 9.9832 89.3534 10.7013 88.8583 11.614L90.6162 12.5678C90.942 11.9672 91.3699 11.5343 91.902 11.238L90.929 9.49066ZM88.8583 11.614C88.3507 12.5496 88.1214 13.64 88.1214 14.8438H90.1214C90.1214 13.8903 90.3027 13.1455 90.6162 12.5678L88.8583 11.614ZM117.848 7.45454V6.45454H116.848V7.45454H117.848ZM120.698 7.45454H121.698V6.45454H120.698V7.45454ZM120.698 26V27H121.698V26H120.698ZM117.848 26H116.848V27H117.848V26ZM117.848 22.8608H118.848V21.8608H117.848V22.8608ZM117.655 22.8608V21.8608H117.015L116.747 22.4417L117.655 22.8608ZM115.627 25.2635L116.206 26.0787L116.211 26.0753L115.627 25.2635ZM109.058 25.4808L108.562 26.3491L108.568 26.3524L109.058 25.4808ZM106.933 23.1626L106.038 23.6071L106.039 23.6099L106.933 23.1626ZM106.161 7.45454V6.45454H105.161V7.45454H106.161ZM109.01 7.45454H110.01V6.45454H109.01V7.45454ZM110.145 22.2812L109.416 22.9662L109.42 22.97L110.145 22.2812ZM115.228 22.9453L114.789 22.047L114.785 22.0489L115.228 22.9453ZM117.088 21.2791L116.26 20.7183L116.255 20.7244L117.088 21.2791ZM118.848 18.4176V7.45454H116.848V18.4176H118.848ZM117.848 8.45454H120.698V6.45454H117.848V8.45454ZM119.698 7.45454V26H121.698V7.45454H119.698ZM120.698 25H117.848V27H120.698V25ZM118.848 26V22.8608H116.848V26H118.848ZM117.848 21.8608H117.655V23.8608H117.848V21.8608ZM116.747 22.4417C116.391 23.213 115.833 23.8831 115.043 24.4517L116.211 26.0753C117.255 25.3238 118.05 24.3921 118.563 23.2799L116.747 22.4417ZM115.047 24.4483C114.336 24.9535 113.394 25.2415 112.149 25.2415V27.2415C113.706 27.2415 115.082 26.8775 116.206 26.0787L115.047 24.4483ZM112.149 25.2415C111.141 25.2415 110.283 25.0224 109.549 24.6092L108.568 26.3524C109.637 26.9535 110.84 27.2415 112.149 27.2415V25.2415ZM109.555 24.6126C108.843 24.206 108.265 23.5892 107.828 22.7154L106.039 23.6099C106.632 24.7967 107.471 25.7254 108.562 26.3491L109.555 24.6126ZM107.829 22.7182C107.403 21.8586 107.161 20.7149 107.161 19.2386H105.161C105.161 20.9177 105.434 22.39 106.038 23.6071L107.829 22.7182ZM107.161 19.2386V7.45454H105.161V19.2386H107.161ZM106.161 8.45454H109.01V6.45454H106.161V8.45454ZM108.01 7.45454V19.0455H110.01V7.45454H108.01ZM108.01 19.0455C108.01 20.5922 108.448 21.9362 109.416 22.9662L110.874 21.5963C110.329 21.0165 110.01 20.2033 110.01 19.0455H108.01ZM109.42 22.97C110.387 23.9878 111.63 24.4886 113.067 24.4886V22.4886C112.138 22.4886 111.433 22.1845 110.87 21.5925L109.42 22.97ZM113.067 24.4886C113.951 24.4886 114.822 24.2616 115.671 23.8417L114.785 22.0489C114.169 22.3535 113.6 22.4886 113.067 22.4886V24.4886ZM115.668 23.8436C116.581 23.3966 117.332 22.7158 117.92 21.8338L116.255 20.7244C115.845 21.3396 115.356 21.7696 114.789 22.047L115.668 23.8436ZM117.915 21.84C118.562 20.8848 118.848 19.7206 118.848 18.4176H116.848C116.848 19.4329 116.627 20.1763 116.26 20.7183L117.915 21.84ZM129.068 25.2031L128.542 26.0535L128.548 26.0573L129.068 25.2031ZM126.086 21.8707L125.185 22.3058L125.188 22.3119L126.086 21.8707ZM126.086 11.8494L125.184 11.4162L125.183 11.4183L126.086 11.8494ZM129.007 8.4446L129.553 9.28243L129.555 9.28157L129.007 8.4446ZM136.264 7.69602L136.587 6.74979L136.587 6.74979L136.264 7.69602ZM138.836 9.26562L138.152 9.99517L138.156 9.99896L138.836 9.26562ZM140.683 12.1151L141.615 11.7535L141.615 11.7535L140.683 12.1151ZM141.371 17.6932V18.6932H142.371V17.6932H141.371ZM127.076 17.6932H126.076V18.6932H127.076V17.6932ZM127.076 15.2301V14.2301H126.076V15.2301H127.076ZM138.473 15.2301V16.2301H139.473V15.2301H138.473ZM137.846 12.429L136.951 12.8762L136.955 12.8832L137.846 12.429ZM136.083 10.4851L135.551 11.3321L135.555 11.3346L136.083 10.4851ZM130.456 10.6179L131.017 11.4462L131.018 11.445L130.456 10.6179ZM128.561 12.7912L127.665 12.3472L127.665 12.3472L128.561 12.7912ZM128.621 20.8686L127.725 21.3129L127.73 21.3218L128.621 20.8686ZM130.662 23.0781L130.158 23.9419L130.164 23.9454L130.662 23.0781ZM135.721 23.5128L136.048 24.4576L136.055 24.4551L135.721 23.5128ZM137.302 22.5469L137.996 23.267L138.003 23.2604L137.302 22.5469ZM138.328 20.929L138.599 19.9662L137.715 19.718L137.392 20.5779L138.328 20.929ZM141.081 21.7017L142.036 21.9981L142.341 21.0166L141.352 20.7389L141.081 21.7017ZM139.62 24.1648L140.336 24.8636L140.34 24.8595L139.62 24.1648ZM137.085 25.8068L137.443 26.7404L137.45 26.7378L137.085 25.8068ZM133.692 25.3864C132.056 25.3864 130.701 25.0266 129.588 24.3489L128.548 26.0573C130.026 26.9573 131.755 27.3864 133.692 27.3864V25.3864ZM129.594 24.3527C128.474 23.6596 127.605 22.6943 126.983 21.4296L125.188 22.3119C125.967 23.8966 127.086 25.1529 128.542 26.0535L129.594 24.3527ZM126.986 21.4357C126.371 20.1624 126.047 18.65 126.047 16.8722H124.047C124.047 18.8936 124.416 20.7135 125.185 22.3058L126.986 21.4357ZM126.047 16.8722C126.047 15.0947 126.371 13.5723 126.988 12.2805L125.183 11.4183C124.416 13.0243 124.047 14.8504 124.047 16.8722H126.047ZM126.987 12.2826C127.615 10.976 128.472 9.98707 129.553 9.28243L128.462 7.60678C127.048 8.52808 125.957 9.80907 125.184 11.4162L126.987 12.2826ZM129.555 9.28157C130.629 8.57901 131.899 8.21307 133.402 8.21307V6.21307C131.557 6.21307 129.897 6.66815 128.46 7.60763L129.555 9.28157ZM133.402 8.21307C134.255 8.21307 135.1 8.35479 135.94 8.64225L136.587 6.74979C135.545 6.39332 134.482 6.21307 133.402 6.21307V8.21307ZM135.94 8.64225C136.739 8.91545 137.476 9.36135 138.152 9.99516L139.52 8.53609C138.65 7.72103 137.672 7.12053 136.587 6.74979L135.94 8.64225ZM138.156 9.99896C138.797 10.5932 139.336 11.4063 139.751 12.4766L141.615 11.7535C141.113 10.4573 140.42 9.37081 139.515 8.53229L138.156 9.99896ZM139.751 12.4766C140.152 13.5109 140.371 14.8368 140.371 16.4858H142.371C142.371 14.6736 142.132 13.0856 141.615 11.7535L139.751 12.4766ZM140.371 16.4858V17.6932H142.371V16.4858H140.371ZM141.371 16.6932H127.076V18.6932H141.371V16.6932ZM128.076 17.6932V15.2301H126.076V17.6932H128.076ZM127.076 16.2301H138.473V14.2301H127.076V16.2301ZM139.473 15.2301C139.473 14.0474 139.236 12.9545 138.736 11.9748L136.955 12.8832C137.292 13.5455 137.473 14.32 137.473 15.2301H139.473ZM138.74 11.9818C138.248 10.9987 137.535 10.2101 136.61 9.63558L135.555 11.3346C136.159 11.7099 136.622 12.2172 136.951 12.8762L138.74 11.9818ZM136.614 9.6381C135.675 9.04864 134.591 8.77273 133.402 8.77273V10.7727C134.274 10.7727 134.977 10.9717 135.551 11.3321L136.614 9.6381ZM133.402 8.77273C132.094 8.77273 130.91 9.10021 129.894 9.79082L131.018 11.445C131.66 11.0087 132.44 10.7727 133.402 10.7727V8.77273ZM129.896 9.78961C128.931 10.4425 128.184 11.2997 127.665 12.3472L129.457 13.2352C129.823 12.4957 130.34 11.9041 131.017 11.4462L129.896 9.78961ZM127.665 12.3472C127.152 13.3822 126.897 14.4925 126.897 15.6648H128.897C128.897 14.7925 129.084 13.9871 129.457 13.2352L127.665 12.3472ZM126.897 15.6648V17.3068H128.897V15.6648H126.897ZM126.897 17.3068C126.897 18.8186 127.157 20.1669 127.725 21.3129L129.517 20.4244C129.119 19.6224 128.897 18.5962 128.897 17.3068H126.897ZM127.73 21.3218C128.301 22.4452 129.11 23.3305 130.158 23.9419L131.165 22.2143C130.475 21.8115 129.923 21.2238 129.513 20.4155L127.73 21.3218ZM130.164 23.9454C131.206 24.5436 132.393 24.8267 133.692 24.8267V22.8267C132.69 22.8267 131.856 22.6107 131.159 22.2109L130.164 23.9454ZM133.692 24.8267C134.533 24.8267 135.323 24.7091 136.048 24.4576L135.393 22.5679C134.911 22.735 134.348 22.8267 133.692 22.8267V24.8267ZM136.055 24.4551C136.794 24.1928 137.445 23.7978 137.996 23.267L136.608 21.8268C136.274 22.1491 135.871 22.3981 135.386 22.5705L136.055 24.4551ZM138.003 23.2604C138.56 22.713 138.978 22.0457 139.265 21.2801L137.392 20.5779C137.196 21.1002 136.929 21.5114 136.602 21.8333L138.003 23.2604ZM138.058 21.8918L140.811 22.6645L141.352 20.7389L138.599 19.9662L138.058 21.8918ZM140.126 21.4053C139.883 22.1885 139.477 22.8734 138.901 23.47L140.34 24.8595C141.132 24.0395 141.7 23.0823 142.036 21.9981L140.126 21.4053ZM138.905 23.4659C138.33 24.0548 137.608 24.5277 136.72 24.8758L137.45 26.7378C138.574 26.2971 139.543 25.6753 140.336 24.8636L138.905 23.4659ZM136.726 24.8733C135.852 25.2091 134.845 25.3864 133.692 25.3864V27.3864C135.05 27.3864 136.306 27.1773 137.443 26.7404L136.726 24.8733ZM160.146 26L159.181 26.2638L159.383 27H160.146V26ZM153.385 1.27273V0.272727H152.074L152.42 1.53648L153.385 1.27273ZM156.427 1.27273L157.396 1.02418L157.203 0.272727H156.427V1.27273ZM161.595 21.4119L160.626 21.6605L160.819 22.4119H161.595V21.4119ZM161.836 21.4119V22.4119H162.609L162.804 21.6648L161.836 21.4119ZM167.1 1.27273V0.272727H166.328L166.133 1.01983L167.1 1.27273ZM170.481 1.27273L171.449 1.01983L171.253 0.272727H170.481V1.27273ZM175.745 21.4119L174.778 21.6648L174.973 22.4119H175.745V21.4119ZM175.987 21.4119V22.4119H176.763L176.955 21.6605L175.987 21.4119ZM181.154 1.27273V0.272727H180.379L180.186 1.02418L181.154 1.27273ZM184.197 1.27273L185.162 1.53648L185.507 0.272727H184.197V1.27273ZM177.436 26V27H178.199L178.4 26.2638L177.436 26ZM174.345 26L173.381 26.2669L173.584 27H174.345V26ZM168.887 6.29545L169.851 6.02854L169.648 5.29545H168.887V6.29545ZM168.694 6.29545V5.29545H167.934L167.731 6.02854L168.694 6.29545ZM163.237 26V27H163.998L164.201 26.2669L163.237 26ZM161.111 25.7362L154.349 1.00897L152.42 1.53648L159.181 26.2638L161.111 25.7362ZM153.385 2.27273H156.427V0.272727H153.385V2.27273ZM155.459 1.52127L160.626 21.6605L162.563 21.1634L157.396 1.02418L155.459 1.52127ZM161.595 22.4119H161.836V20.4119H161.595V22.4119ZM162.804 21.6648L168.068 1.52562L166.133 1.01983L160.869 21.159L162.804 21.6648ZM167.1 2.27273H170.481V0.272727H167.1V2.27273ZM169.514 1.52562L174.778 21.6648L176.713 21.159L171.449 1.01983L169.514 1.52562ZM175.745 22.4119H175.987V20.4119H175.745V22.4119ZM176.955 21.6605L182.123 1.52127L180.186 1.02418L175.018 21.1634L176.955 21.6605ZM181.154 2.27273H184.197V0.272727H181.154V2.27273ZM183.233 1.00897L176.471 25.7362L178.4 26.2638L185.162 1.53648L183.233 1.00897ZM177.436 25H174.345V27H177.436V25ZM175.309 25.7331L169.851 6.02854L167.924 6.56237L173.381 26.2669L175.309 25.7331ZM168.887 5.29545H168.694V7.29545H168.887V5.29545ZM167.731 6.02854L162.273 25.7331L164.201 26.2669L169.658 6.56237L167.731 6.02854ZM163.237 25H160.146V27H163.237V25ZM188.073 25.7706L187.647 26.6754L187.653 26.6783L188.073 25.7706ZM185.791 23.8267L184.956 24.3778L184.959 24.3814L185.791 23.8267ZM185.574 18.152L186.418 18.6875L186.421 18.6829L185.574 18.152ZM189.57 15.7372L189.784 16.7141L189.791 16.7125L189.57 15.7372ZM192.142 15.2784L192.014 14.2866L192.012 14.2869L192.142 15.2784ZM194.882 14.9524L194.985 15.9472L194.995 15.946L194.882 14.9524ZM196.428 14.554L195.939 13.6818L195.929 13.6871L196.428 14.554ZM195.945 10.7145L195.229 11.4128L195.234 11.4172L195.945 10.7145ZM189.811 10.6179L190.422 11.4099L190.422 11.4099L189.811 10.6179ZM188.181 12.5256L187.845 13.4673L188.704 13.7742L189.088 12.9467L188.181 12.5256ZM185.477 11.5597L184.558 11.1657L184.139 12.1436L185.141 12.5014L185.477 11.5597ZM187.409 8.92756L188.024 9.71606L188.025 9.71523L187.409 8.92756ZM190.065 7.59943L190.317 8.56715L190.323 8.56567L190.065 7.59943ZM194.967 7.4304L194.783 8.41334L194.794 8.41538L194.967 7.4304ZM197.225 8.28764L196.71 9.14514L196.714 9.14762L197.225 8.28764ZM199.048 10.2557L198.172 10.7379L198.172 10.7379L199.048 10.2557ZM199.772 26V27H200.772V26H199.772ZM196.923 26H195.923V27H196.923V26ZM196.923 23.4886H197.923V22.4886H196.923V23.4886ZM196.778 23.4886V22.4886H196.149L195.877 23.0559L196.778 23.4886ZM195.812 24.7805L196.525 25.4814L196.525 25.4814L195.812 24.7805ZM194.013 25.9517L193.618 25.0331L193.618 25.0331L194.013 25.9517ZM194.556 23.2109L194.063 22.341L194.059 22.3433L194.556 23.2109ZM196.319 21.4964L195.452 20.9981L195.448 21.0057L196.319 21.4964ZM196.923 16.679H197.923V13.9169L196.155 16.0388L196.923 16.679ZM196.126 17.0774L196.396 18.0405L196.408 18.0368L196.126 17.0774ZM194.725 17.3793L194.878 18.3677L194.89 18.3657L194.725 17.3793ZM193.192 17.5966L193.306 18.5902L193.32 18.5884L193.192 17.5966ZM191.997 17.7415L192.126 18.7331L192.127 18.7329L191.997 17.7415ZM189.92 18.2124L190.233 19.1623L190.24 19.1599L189.92 18.2124ZM188.375 19.1662L187.64 18.4873L187.64 18.4879L188.375 19.1662ZM188.894 23.1264L188.325 23.9487L188.335 23.9557L188.894 23.1264ZM191.272 25.4347C190.225 25.4347 189.304 25.2382 188.492 24.8629L187.653 26.6783C188.757 27.1884 189.969 27.4347 191.272 27.4347V25.4347ZM188.499 24.8658C187.698 24.4891 187.081 23.9591 186.623 23.272L184.959 24.3814C185.628 25.3846 186.532 26.1505 187.647 26.6754L188.499 24.8658ZM186.625 23.2756C186.188 22.6137 185.946 21.7834 185.946 20.7358H183.946C183.946 22.103 184.267 23.3333 184.956 24.3778L186.625 23.2756ZM185.946 20.7358C185.946 19.7969 186.131 19.1395 186.418 18.6875L184.729 17.6164C184.179 18.4845 183.946 19.5497 183.946 20.7358H185.946ZM186.421 18.6829C186.747 18.1628 187.177 17.7592 187.727 17.4622L186.776 15.7026C185.926 16.1622 185.237 16.805 184.726 17.6211L186.421 18.6829ZM187.727 17.4622C188.338 17.132 189.022 16.8809 189.784 16.7141L189.356 14.7604C188.427 14.9638 187.566 15.2762 186.776 15.7026L187.727 17.4622ZM189.791 16.7125C190.614 16.5261 191.441 16.3786 192.271 16.27L192.012 14.2869C191.12 14.4036 190.232 14.562 189.349 14.7619L189.791 16.7125ZM192.269 16.2702C193.392 16.1259 194.297 16.0183 194.985 15.9471L194.78 13.9577C194.068 14.0314 193.145 14.1412 192.014 14.2866L192.269 16.2702ZM194.995 15.946C195.738 15.8617 196.421 15.7114 196.926 15.4209L195.929 13.6871C195.791 13.7668 195.444 13.8822 194.77 13.9588L194.995 15.946ZM196.917 15.4261C197.635 15.0236 197.923 14.3176 197.923 13.5881H195.923C195.923 13.7003 195.903 13.7305 195.909 13.7176C195.913 13.7109 195.919 13.7007 195.929 13.6909C195.938 13.6814 195.943 13.6791 195.939 13.6818L196.917 15.4261ZM197.923 13.5881V13.4915H195.923V13.5881H197.923ZM197.923 13.4915C197.923 12.1152 197.542 10.908 196.656 10.0117L195.234 11.4172C195.652 11.8411 195.923 12.4852 195.923 13.4915H197.923ZM196.661 10.0162C195.761 9.09387 194.477 8.72443 193.011 8.72443V10.7244C194.169 10.7244 194.841 11.015 195.229 11.4128L196.661 10.0162ZM193.011 8.72443C191.515 8.72443 190.206 9.05118 189.201 9.82589L190.422 11.4099C190.962 10.9933 191.786 10.7244 193.011 10.7244V8.72443ZM189.201 9.82589C188.339 10.4904 187.674 11.2447 187.274 12.1045L189.088 12.9467C189.317 12.4541 189.739 11.9367 190.422 11.4099L189.201 9.82589ZM188.518 11.5838L185.813 10.6179L185.141 12.5014L187.845 13.4673L188.518 11.5838ZM186.396 11.9536C186.826 10.9507 187.376 10.2212 188.024 9.71606L186.794 8.13905C185.831 8.88964 185.094 9.91484 184.558 11.1657L186.396 11.9536ZM188.025 9.71523C188.735 9.15993 189.497 8.7807 190.317 8.56714L189.813 6.63173C188.717 6.91721 187.709 7.4234 186.793 8.13989L188.025 9.71523ZM190.323 8.56567C191.21 8.32893 192.074 8.21307 192.914 8.21307V6.21307C191.888 6.21307 190.851 6.35478 189.807 6.6332L190.323 8.56567ZM192.914 8.21307C193.432 8.21307 194.053 8.2764 194.783 8.41327L195.151 6.44752C194.336 6.29463 193.588 6.21307 192.914 6.21307V8.21307ZM194.794 8.41538C195.447 8.52969 196.084 8.76939 196.71 9.14513L197.739 7.43015C196.917 6.93657 196.049 6.60478 195.14 6.44541L194.794 8.41538ZM196.714 9.14762C197.268 9.47634 197.76 9.9891 198.172 10.7379L199.924 9.77345C199.37 8.76753 198.646 7.96826 197.735 7.42766L196.714 9.14762ZM198.172 10.7379C198.544 11.4142 198.772 12.4031 198.772 13.7812H200.772C200.772 12.2134 200.518 10.8519 199.924 9.77345L198.172 10.7379ZM198.772 13.7812V26H200.772V13.7812H198.772ZM199.772 25H196.923V27H199.772V25ZM197.923 26V23.4886H195.923V26H197.923ZM196.923 22.4886H196.778V24.4886H196.923V22.4886ZM195.877 23.0559C195.747 23.3261 195.503 23.6678 195.099 24.0797L196.525 25.4814C197.022 24.9756 197.423 24.4561 197.68 23.9214L195.877 23.0559ZM195.099 24.0797C194.76 24.4249 194.278 24.7492 193.618 25.0331L194.408 26.8703C195.245 26.5102 195.963 26.0538 196.525 25.4814L195.099 24.0797ZM193.618 25.0331C193.028 25.287 192.257 25.4347 191.272 25.4347V27.4347C192.445 27.4347 193.502 27.2603 194.408 26.8703L193.618 25.0331ZM191.707 24.875C192.963 24.875 194.094 24.6282 195.054 24.0786L194.059 22.3433C193.473 22.6791 192.705 22.875 191.707 22.875V24.875ZM195.05 24.0808C195.97 23.5592 196.697 22.8638 197.191 21.9872L195.448 21.0057C195.153 21.5296 194.705 21.9773 194.063 22.341L195.05 24.0808ZM197.186 21.9947C197.672 21.15 197.923 20.2426 197.923 19.2869H195.923C195.923 19.8767 195.772 20.4423 195.452 20.9982L197.186 21.9947ZM197.923 19.2869V16.679H195.923V19.2869H197.923ZM196.155 16.0388C196.19 15.9959 196.218 15.9757 196.222 15.9734C196.226 15.9705 196.216 15.9778 196.186 15.9928C196.124 16.024 196.015 16.0678 195.844 16.118L196.408 18.0368C196.648 17.9663 196.877 17.8833 197.08 17.7817C197.273 17.6852 197.506 17.5409 197.691 17.3192L196.155 16.0388ZM195.856 16.1145C195.497 16.2151 195.066 16.3086 194.561 16.3929L194.89 18.3657C195.447 18.2728 195.95 18.1651 196.396 18.0404L195.856 16.1145ZM194.573 16.3909C194.058 16.4702 193.555 16.5415 193.064 16.6048L193.32 18.5884C193.828 18.5229 194.347 18.4493 194.878 18.3676L194.573 16.3909ZM193.078 16.6031C192.584 16.6598 192.18 16.7088 191.866 16.75L192.127 18.7329C192.425 18.6937 192.818 18.6461 193.306 18.5901L193.078 16.6031ZM191.867 16.7499C191.068 16.8541 190.312 17.0247 189.6 17.2649L190.24 19.1599C190.816 18.9653 191.444 18.822 192.126 18.7331L191.867 16.7499ZM189.607 17.2625C188.835 17.5167 188.167 17.9182 187.64 18.4873L189.109 19.845C189.372 19.561 189.733 19.3266 190.233 19.1622L189.607 17.2625ZM187.64 18.4879C187.04 19.1374 186.795 19.9757 186.795 20.8807H188.795C188.795 20.3368 188.936 20.0321 189.109 19.8445L187.64 18.4879ZM186.795 20.8807C186.795 22.1562 187.289 23.2317 188.325 23.9486L189.463 22.3042C189.034 22.0069 188.795 21.5853 188.795 20.8807H186.795ZM188.335 23.9557C189.28 24.5927 190.427 24.875 191.707 24.875V22.875C190.717 22.875 189.988 22.6582 189.453 22.2972L188.335 23.9557ZM213.039 7.45454H214.039V6.45454H213.039V7.45454ZM213.039 9.86932V10.8693H214.039V9.86932H213.039ZM203.428 9.86932H202.428V10.8693H203.428V9.86932ZM203.428 7.45454V6.45454H202.428V7.45454H203.428ZM206.229 3.01136V2.01136H205.229V3.01136H206.229ZM209.078 3.01136H210.078V2.01136H209.078V3.01136ZM209.428 22.4986L208.563 23.0003L208.569 23.0106L208.576 23.0207L209.428 22.4986ZM210.346 23.2955L209.999 24.2334L210.012 24.2379L210.024 24.2421L210.346 23.2955ZM212.314 23.4403L212.472 24.4278L212.491 24.4247L212.51 24.4209L212.314 23.4403ZM212.797 23.3438L213.772 23.1229L213.557 22.1719L212.601 22.3632L212.797 23.3438ZM213.377 25.9034L213.728 26.8397L214.545 26.5334L214.352 25.6826L213.377 25.9034ZM212.568 26.1207L212.363 25.1419L212.352 25.1442L212.341 25.1467L212.568 26.1207ZM208.885 25.7223L208.473 26.6333L208.476 26.6349L208.885 25.7223ZM206.977 24.1406L206.16 24.7166L206.164 24.7227L206.977 24.1406ZM212.039 7.45454V9.86932H214.039V7.45454H212.039ZM213.039 8.86932H203.428V10.8693H213.039V8.86932ZM204.428 9.86932V7.45454H202.428V9.86932H204.428ZM203.428 8.45454H213.039V6.45454H203.428V8.45454ZM206.229 4.01136H209.078V2.01136H206.229V4.01136ZM208.078 3.01136V20.6875H210.078V3.01136H208.078ZM208.078 20.6875C208.078 21.5563 208.199 22.3712 208.563 23.0003L210.293 21.9969C210.192 21.8211 210.078 21.4285 210.078 20.6875H208.078ZM208.576 23.0207C208.913 23.5724 209.384 24.0059 209.999 24.2334L210.693 22.3575C210.568 22.3113 210.426 22.2136 210.281 21.9764L208.576 23.0207ZM210.024 24.2421C210.511 24.4079 211.018 24.4886 211.541 24.4886V22.4886C211.227 22.4886 210.938 22.4406 210.668 22.3488L210.024 24.2421ZM211.541 24.4886C211.883 24.4886 212.199 24.4715 212.472 24.4278L212.156 22.4529C212.027 22.4735 211.827 22.4886 211.541 22.4886V24.4886ZM212.51 24.4209C212.711 24.3807 212.872 24.3485 212.993 24.3243L212.601 22.3632C212.48 22.3873 212.319 22.4195 212.118 22.4598L212.51 24.4209ZM211.822 23.5646L212.401 26.1242L214.352 25.6826L213.772 23.1229L211.822 23.5646ZM213.025 24.9671C212.902 25.0135 212.689 25.0737 212.363 25.1419L212.773 27.0995C213.139 27.0229 213.465 26.9382 213.728 26.8397L213.025 24.9671ZM212.341 25.1467C212.096 25.2037 211.74 25.2415 211.252 25.2415V27.2415C211.826 27.2415 212.347 27.1987 212.794 27.0947L212.341 25.1467ZM211.252 25.2415C210.595 25.2415 209.945 25.1012 209.294 24.8097L208.476 26.6349C209.371 27.0356 210.299 27.2415 211.252 27.2415V25.2415ZM209.297 24.8113C208.699 24.5405 208.199 24.1295 207.791 23.5585L206.164 24.7227C206.77 25.5684 207.542 26.2119 208.473 26.6333L209.297 24.8113ZM207.795 23.5647C207.441 23.0623 207.229 22.3836 207.229 21.4602H205.229C205.229 22.6941 205.516 23.8023 206.16 24.7166L207.795 23.5647ZM207.229 21.4602V3.01136H205.229V21.4602H207.229ZM220.168 25.1548L219.621 25.9918L219.621 25.9918L220.168 25.1548ZM217.295 11.8374L216.394 11.4022L216.393 11.4043L217.295 11.8374ZM220.216 8.4446L220.762 9.28243L220.764 9.28157L220.216 8.4446ZM230.709 9.96591L231.502 9.35655L231.502 9.35655L230.709 9.96591ZM231.952 13.0085V14.0085H233.101L232.943 12.871L231.952 13.0085ZM229.103 13.0085L228.134 13.2576L228.327 14.0085H229.103V13.0085ZM227.654 10.7628L226.989 11.5093L226.997 11.5169L227.654 10.7628ZM221.738 10.642L222.305 11.4654L222.307 11.4642L221.738 10.642ZM219.794 13.0689L218.881 12.6614L218.879 12.6647L219.794 13.0689ZM219.782 20.4702L218.861 20.8607L218.864 20.8666L219.782 20.4702ZM221.714 22.9453L221.135 23.7612L221.139 23.7638L221.714 22.9453ZM226.676 23.4403L226.284 22.5206L226.284 22.5206L226.676 23.4403ZM228.209 22.3295L228.965 22.9845L228.965 22.9845L228.209 22.3295ZM229.103 20.5909V19.5909H228.331L228.135 20.3375L229.103 20.5909ZM231.952 20.5909L232.942 20.7364L233.11 19.5909H231.952V20.5909ZM230.757 23.549L229.947 22.9622L229.946 22.9635L230.757 23.549ZM228.258 25.6257L228.699 26.5229L228.702 26.5215L228.258 25.6257ZM224.66 25.3864C223.084 25.3864 221.784 25.0164 220.715 24.3179L219.621 25.9918C221.064 26.9353 222.758 27.3864 224.66 27.3864V25.3864ZM220.715 24.3179C219.625 23.6046 218.778 22.6208 218.176 21.3373L216.365 22.1869C217.115 23.785 218.2 25.063 219.621 25.9918L220.715 24.3179ZM218.176 21.3373C217.571 20.0494 217.256 18.5522 217.256 16.8239H215.256C215.256 18.7982 215.617 20.5931 216.365 22.1869L218.176 21.3373ZM217.256 16.8239C217.256 15.0637 217.579 13.5541 218.196 12.2704L216.393 11.4043C215.625 13.0023 215.256 14.817 215.256 16.8239H217.256ZM218.195 12.2725C218.823 10.9739 219.68 9.98797 220.762 9.28243L219.671 7.60678C218.258 8.52718 217.167 9.80304 216.394 11.4022L218.195 12.2725ZM220.764 9.28157C221.838 8.57901 223.108 8.21307 224.611 8.21307V6.21307C222.766 6.21307 221.106 6.66815 219.669 7.60763L220.764 9.28157ZM224.611 8.21307C225.79 8.21307 226.819 8.43065 227.718 8.84546L228.556 7.02954C227.362 6.47844 226.041 6.21307 224.611 6.21307V8.21307ZM227.718 8.84546C228.625 9.26418 229.351 9.84087 229.916 10.5753L231.502 9.35655C230.73 8.35231 229.742 7.57673 228.556 7.02954L227.718 8.84546ZM229.916 10.5753C230.471 11.2978 230.823 12.1468 230.962 13.1461L232.943 12.871C232.76 11.5521 232.282 10.3726 231.502 9.35655L229.916 10.5753ZM231.952 12.0085H229.103V14.0085H231.952V12.0085ZM230.071 12.7595C229.797 11.6921 229.19 10.7747 228.311 10.0087L226.997 11.5169C227.615 12.0549 227.974 12.6346 228.134 13.2576L230.071 12.7595ZM228.319 10.0163C227.351 9.15306 226.093 8.77273 224.66 8.77273V10.7727C225.737 10.7727 226.476 11.0524 226.989 11.5093L228.319 10.0163ZM224.66 8.77273C223.365 8.77273 222.188 9.11396 221.169 9.81985L222.307 11.4642C222.962 11.011 223.733 10.7727 224.66 10.7727V8.77273ZM221.17 9.8187C220.17 10.5082 219.412 11.4709 218.881 12.6614L220.707 13.4763C221.11 12.574 221.647 11.9189 222.305 11.4654L221.17 9.8187ZM218.879 12.6647C218.353 13.8565 218.106 15.2192 218.106 16.7273H220.106C220.106 15.4342 220.318 14.358 220.709 13.4731L218.879 12.6647ZM218.106 16.7273C218.106 18.2628 218.347 19.6487 218.861 20.8607L220.702 20.0796C220.315 19.1666 220.106 18.0572 220.106 16.7273H218.106ZM218.864 20.8666C219.385 22.0735 220.137 23.0535 221.135 23.7612L222.292 22.1294C221.632 21.662 221.096 20.9918 220.7 20.0737L218.864 20.8666ZM221.139 23.7638C222.162 24.4815 223.349 24.8267 224.66 24.8267V22.8267C223.716 22.8267 222.94 22.5843 222.288 22.1268L221.139 23.7638ZM224.66 24.8267C225.518 24.8267 226.326 24.677 227.068 24.3601L226.284 22.5206C225.819 22.7188 225.283 22.8267 224.66 22.8267V24.8267ZM227.068 24.3601C227.808 24.0446 228.444 23.5853 228.965 22.9845L227.454 21.6746C227.137 22.0397 226.751 22.3209 226.284 22.5206L227.068 24.3601ZM228.965 22.9845C229.493 22.3751 229.858 21.6546 230.07 20.8443L228.135 20.3375C227.993 20.8795 227.763 21.3181 227.454 21.6746L228.965 22.9845ZM229.103 21.5909H231.952V19.5909H229.103V21.5909ZM230.963 20.4454C230.825 21.3842 230.486 22.2181 229.947 22.9622L231.567 24.1359C232.299 23.1252 232.758 21.987 232.942 20.7364L230.963 20.4454ZM229.946 22.9635C229.421 23.6907 228.718 24.2809 227.813 24.7299L228.702 26.5215C229.874 25.9402 230.837 25.146 231.568 24.1345L229.946 22.9635ZM227.816 24.7285C226.947 25.1562 225.904 25.3864 224.66 25.3864V27.3864C226.152 27.3864 227.508 27.1094 228.699 26.5229L227.816 24.7285ZM238.967 26V27H239.967V26H238.967ZM236.118 26H235.118V27H236.118V26ZM236.118 1.27273V0.272727H235.118V1.27273H236.118ZM238.967 1.27273H239.967V0.272727H238.967V1.27273ZM238.967 10.3523H237.967V11.3523H238.967V10.3523ZM239.209 10.3523V11.3523H239.853L240.119 10.7655L239.209 10.3523ZM241.165 8.07031L241.708 8.90947L241.71 8.90823L241.165 8.07031ZM247.986 7.97372L247.515 8.85589L247.521 8.85896L247.986 7.97372ZM250.196 10.2798L249.303 10.7298L249.307 10.7381L250.196 10.2798ZM250.993 26V27H251.993V26H250.993ZM248.143 26H247.143V27H248.143V26ZM246.996 10.9922L246.264 11.6735L246.271 11.6809L246.996 10.9922ZM241.334 10.3643L240.864 9.48172L240.86 9.48387L241.334 10.3643ZM239.595 12.0909L238.724 11.5998L238.72 11.6068L239.595 12.0909ZM237.967 14.8438V26H239.967V14.8438H237.967ZM238.967 25H236.118V27H238.967V25ZM237.118 26V1.27273H235.118V26H237.118ZM236.118 2.27273H238.967V0.272727H236.118V2.27273ZM237.967 1.27273V10.3523H239.967V1.27273H237.967ZM238.967 11.3523H239.209V9.35227H238.967V11.3523ZM240.119 10.7655C240.476 9.97892 241.002 9.36724 241.708 8.90947L240.621 7.23116C239.588 7.90028 238.81 8.80991 238.298 9.93905L240.119 10.7655ZM241.71 8.90823C242.373 8.47635 243.33 8.21307 244.666 8.21307V6.21307C243.088 6.21307 241.71 6.52129 240.619 7.2324L241.71 8.90823ZM244.666 8.21307C245.794 8.21307 246.734 8.43857 247.515 8.85587L248.457 7.09157C247.339 6.49467 246.065 6.21307 244.666 6.21307V8.21307ZM247.521 8.85896C248.271 9.25286 248.865 9.86118 249.303 10.7298L251.089 9.82985C250.48 8.62177 249.601 7.69269 248.451 7.08848L247.521 8.85896ZM249.307 10.7381C249.743 11.5837 249.993 12.725 249.993 14.2159H251.993C251.993 12.5194 251.711 11.0365 251.085 9.82154L249.307 10.7381ZM249.993 14.2159V26H251.993V14.2159H249.993ZM250.993 25H248.143V27H250.993V25ZM249.143 26V14.4091H247.143V26H249.143ZM249.143 14.4091C249.143 12.7657 248.714 11.3484 247.721 10.3034L246.271 11.6809C246.808 12.2458 247.143 13.1064 247.143 14.4091H249.143ZM247.728 10.3109C246.743 9.25269 245.404 8.77273 243.845 8.77273V10.7727C244.975 10.7727 245.736 11.1057 246.264 11.6735L247.728 10.3109ZM243.845 8.77273C242.766 8.77273 241.765 9.00186 240.864 9.48173L241.804 11.247C242.384 10.938 243.056 10.7727 243.845 10.7727V8.77273ZM240.86 9.48387C239.953 9.97199 239.239 10.6861 238.724 11.5998L240.466 12.582C240.804 11.9825 241.249 11.5455 241.808 11.2448L240.86 9.48387ZM238.72 11.6068C238.202 12.544 237.967 13.6371 237.967 14.8438H239.967C239.967 13.8932 240.151 13.1511 240.47 12.575L238.72 11.6068ZM256.206 26H255.206V27H256.206V26ZM256.206 7.45454V6.45454H255.206V7.45454H256.206ZM259.055 7.45454H260.055V6.45454H259.055V7.45454ZM259.055 26V27H260.055V26H259.055ZM256.218 3.79616L255.525 4.51788L255.533 4.52479L256.218 3.79616ZM256.218 1.06747L255.533 0.338805L255.525 0.34579L256.218 1.06747ZM259.079 1.06747L258.387 1.78919L258.394 1.7961L259.079 1.06747ZM259.079 3.79616L258.394 3.0675L258.387 3.07448L259.079 3.79616ZM257.206 26V7.45454H255.206V26H257.206ZM256.206 8.45454H259.055V6.45454H256.206V8.45454ZM258.055 7.45454V26H260.055V7.45454H258.055ZM259.055 25H256.206V27H259.055V25ZM257.654 3.36364C257.352 3.36364 257.118 3.27046 256.903 3.06754L255.533 4.52479C256.122 5.0785 256.846 5.36364 257.654 5.36364V3.36364ZM256.91 3.07448C256.706 2.87865 256.626 2.68193 256.626 2.43182H254.626C254.626 3.24421 254.941 3.95705 255.525 4.51785L256.91 3.07448ZM256.626 2.43182C256.626 2.18171 256.706 1.98498 256.91 1.78915L255.525 0.34579C254.941 0.906591 254.626 1.61943 254.626 2.43182H256.626ZM256.903 1.7961C257.118 1.59317 257.352 1.5 257.654 1.5V-0.5C256.846 -0.5 256.122 -0.214861 255.533 0.338842L256.903 1.7961ZM257.654 1.5C257.957 1.5 258.182 1.59265 258.387 1.78915L259.771 0.345789C259.187 -0.214333 258.463 -0.5 257.654 -0.5V1.5ZM258.394 1.7961C258.605 1.99388 258.683 2.18863 258.683 2.43182H260.683C260.683 1.61251 260.359 0.897695 259.764 0.338844L258.394 1.7961ZM258.683 2.43182C258.683 2.675 258.605 2.86976 258.394 3.06754L259.764 4.52479C260.359 3.96594 260.683 3.25113 260.683 2.43182H258.683ZM258.387 3.07448C258.182 3.27099 257.957 3.36364 257.654 3.36364V5.36364C258.463 5.36364 259.187 5.07797 259.771 4.51784L258.387 3.07448ZM267.123 26V27H268.123V26H267.123ZM264.274 26H263.274V27H264.274V26ZM264.274 7.45454V6.45454H263.274V7.45454H264.274ZM267.027 7.45454H268.027V6.45454H267.027V7.45454ZM267.027 10.3523H266.027V11.3523H267.027V10.3523ZM267.268 10.3523V11.3523H267.908L268.176 10.7713L267.268 10.3523ZM269.248 8.08239L269.791 8.92259L269.796 8.91909L269.248 8.08239ZM275.974 7.98579L275.494 8.86314L275.499 8.86627L275.974 7.98579ZM278.171 10.304L277.278 10.754L277.279 10.7568L278.171 10.304ZM278.956 26V27H279.956V26H278.956ZM276.106 26H275.106V27H276.106V26ZM274.971 11.0043L274.236 11.6819L274.239 11.6855L274.971 11.0043ZM269.417 10.3643L268.935 9.48833L268.931 9.49066L269.417 10.3643ZM267.739 12.0909L266.86 11.614L266.86 11.614L267.739 12.0909ZM266.123 14.8438V26H268.123V14.8438H266.123ZM267.123 25H264.274V27H267.123V25ZM265.274 26V7.45454H263.274V26H265.274ZM264.274 8.45454H267.027V6.45454H264.274V8.45454ZM266.027 7.45454V10.3523H268.027V7.45454H266.027ZM267.027 11.3523H267.268V9.35227H267.027V11.3523ZM268.176 10.7713C268.53 10.0047 269.062 9.39295 269.791 8.92257L268.706 7.2422C267.664 7.91481 266.876 8.81635 266.36 9.93321L268.176 10.7713ZM269.796 8.91909C270.474 8.4755 271.41 8.21307 272.677 8.21307V6.21307C271.144 6.21307 269.794 6.53018 268.701 7.24569L269.796 8.91909ZM272.677 8.21307C273.794 8.21307 274.722 8.44115 275.494 8.86312L276.453 7.10847C275.341 6.50014 274.072 6.21307 272.677 6.21307V8.21307ZM275.499 8.86627C276.245 9.26767 276.839 9.88191 277.278 10.754L279.064 9.854C278.457 8.64934 277.586 7.71812 276.448 7.10532L275.499 8.86627ZM277.279 10.7568C277.71 11.6051 277.956 12.7411 277.956 14.2159H279.956C279.956 12.5355 279.678 11.0635 279.063 9.8512L277.279 10.7568ZM277.956 14.2159V26H279.956V14.2159H277.956ZM278.956 25H276.106V27H278.956V25ZM277.106 26V14.4091H275.106V26H277.106ZM277.106 14.4091C277.106 12.7804 276.681 11.3728 275.703 10.323L274.239 11.6855C274.776 12.2616 275.106 13.124 275.106 14.4091H277.106ZM275.707 10.3266C274.726 9.26257 273.4 8.77273 271.856 8.77273V10.7727C272.953 10.7727 273.703 11.1039 274.236 11.6819L275.707 10.3266ZM271.856 8.77273C270.797 8.77273 269.815 9.00376 268.935 9.48834L269.9 11.2404C270.452 10.9361 271.096 10.7727 271.856 10.7727V8.77273ZM268.931 9.49066C268.046 9.9832 267.355 10.7013 266.86 11.614L268.618 12.5678C268.944 11.9672 269.372 11.5343 269.904 11.238L268.931 9.49066ZM266.86 11.614C266.353 12.5496 266.123 13.64 266.123 14.8438H268.123C268.123 13.8903 268.305 13.1455 268.618 12.5678L266.86 11.614ZM288.099 32.8097L288.436 31.8681L288.429 31.8657L288.099 32.8097ZM285.624 31.4332L286.278 30.6772L286.277 30.6766L285.624 31.4332ZM284.066 29.6222L283.491 28.8037L282.73 29.3386L283.209 30.1367L284.066 29.6222ZM286.336 28.0284L287.131 27.4224L286.548 26.6573L285.761 27.21L286.336 28.0284ZM287.314 29.1875L288.061 28.5223L288.054 28.5155L287.314 29.1875ZM288.932 30.3345L289.362 29.4318L289.358 29.4297L288.932 30.3345ZM295.355 29.7429L295.952 30.5453L295.952 30.5453L295.355 29.7429ZM296.816 22.571H297.816V21.571H296.816V22.571ZM296.575 22.571V21.571H296.018L295.724 22.0447L296.575 22.571ZM295.681 23.8267L294.89 23.2145L294.889 23.2164L295.681 23.8267ZM294.039 25.1428L294.51 26.0248L294.514 26.0229L294.039 25.1428ZM287.133 24.6477L286.619 25.5057L286.622 25.5073L287.133 24.6477ZM284.32 21.5568L283.427 22.0083L283.429 22.0125L284.32 21.5568ZM284.295 11.6683L285.199 12.0969L285.2 12.0949L284.295 11.6683ZM287.085 8.38423L287.629 9.2232L287.633 9.2206L287.085 8.38423ZM294.087 7.81676L293.593 8.6863L293.605 8.69277L294.087 7.81676ZM295.729 9.16903L294.928 9.767L294.933 9.77415L294.939 9.78121L295.729 9.16903ZM296.623 10.4006L295.784 10.9456L296.08 11.4006H296.623V10.4006ZM296.913 10.4006V11.4006H297.913V10.4006H296.913ZM296.913 7.45454V6.45454H295.913V7.45454H296.913ZM299.665 7.45454H300.665V6.45454H299.665V7.45454ZM298.579 30.419L297.77 29.8316L297.764 29.839L298.579 30.419ZM295.681 32.6286L295.323 31.695L295.315 31.698L295.681 32.6286ZM294.45 22.3658L293.897 21.5324L293.897 21.5324L294.45 22.3658ZM296.249 20.108L297.171 20.4936L297.171 20.4936L296.249 20.108ZM296.261 13.0447L297.191 12.6784L297.191 12.6784L296.261 13.0447ZM294.474 10.642L293.882 11.4479L293.882 11.4479L294.474 10.642ZM288.533 10.6903L287.928 9.89417L287.924 9.89712L288.533 10.6903ZM286.734 13.1534L285.803 12.7896L285.8 12.7959L286.734 13.1534ZM286.746 19.9993L285.82 20.3759L285.824 20.385L286.746 19.9993ZM288.558 22.3175L287.98 23.134L287.99 23.1406L288.558 22.3175ZM291.648 32.3409C290.353 32.3409 289.29 32.1737 288.436 31.8681L287.762 33.7512C288.888 34.1539 290.191 34.3409 291.648 34.3409V32.3409ZM288.429 31.8657C287.534 31.553 286.826 31.1514 286.278 30.6772L284.969 32.1892C285.741 32.8581 286.683 33.3741 287.769 33.7536L288.429 31.8657ZM286.277 30.6766C285.694 30.1725 285.248 29.6483 284.924 29.1077L283.209 30.1367C283.657 30.8839 284.249 31.5671 284.97 32.1899L286.277 30.6766ZM284.641 30.4406L286.911 28.8468L285.761 27.21L283.491 28.8037L284.641 30.4406ZM285.541 28.6345C285.821 29.002 286.166 29.411 286.573 29.8595L288.054 28.5155C287.673 28.0947 287.366 27.731 287.131 27.4224L285.541 28.6345ZM286.567 29.8527C287.072 30.4197 287.732 30.8751 288.506 31.2393L289.358 29.4297C288.763 29.15 288.344 28.8407 288.061 28.5223L286.567 29.8527ZM288.501 31.2372C289.375 31.6538 290.444 31.8295 291.648 31.8295V29.8295C290.615 29.8295 289.873 29.6753 289.362 29.4319L288.501 31.2372ZM291.648 31.8295C293.309 31.8295 294.769 31.4255 295.952 30.5453L294.758 28.9405C293.994 29.5092 292.982 29.8295 291.648 29.8295V31.8295ZM295.952 30.5453C297.247 29.5817 297.816 28.1043 297.816 26.3381H295.816C295.816 27.6627 295.411 28.4552 294.758 28.9405L295.952 30.5453ZM297.816 26.3381V22.571H295.816V26.3381H297.816ZM296.816 21.571H296.575V23.571H296.816V21.571ZM295.724 22.0447C295.541 22.3412 295.266 22.7291 294.89 23.2145L296.472 24.4389C296.869 23.9262 297.19 23.477 297.425 23.0974L295.724 22.0447ZM294.889 23.2164C294.619 23.5671 294.194 23.923 293.564 24.2626L294.514 26.0229C295.317 25.5898 295.987 25.0683 296.473 24.437L294.889 23.2164ZM293.568 24.2607C293.059 24.5323 292.285 24.7102 291.165 24.7102V26.7102C292.461 26.7102 293.602 26.5099 294.51 26.0248L293.568 24.2607ZM291.165 24.7102C289.833 24.7102 288.668 24.3972 287.644 23.7882L286.622 25.5073C287.98 26.3149 289.503 26.7102 291.165 26.7102V24.7102ZM287.646 23.7897C286.64 23.1872 285.826 22.3042 285.21 21.1011L283.429 22.0125C284.198 23.514 285.259 24.6916 286.619 25.5057L287.646 23.7897ZM285.212 21.1054C284.615 19.9261 284.293 18.4475 284.293 16.6307H282.293C282.293 18.6775 282.656 20.4829 283.427 22.0083L285.212 21.1054ZM284.293 16.6307C284.293 14.8475 284.607 13.3455 285.199 12.0969L283.392 11.2398C282.648 12.8084 282.293 14.6146 282.293 16.6307H284.293ZM285.2 12.0949C285.797 10.8286 286.609 9.88438 287.629 9.22319L286.54 7.54527C285.177 8.42954 284.13 9.67472 283.391 11.2418L285.2 12.0949ZM287.633 9.2206C288.645 8.55681 289.827 8.21307 291.214 8.21307V6.21307C289.477 6.21307 287.906 6.65011 286.536 7.54786L287.633 9.2206ZM291.214 8.21307C292.326 8.21307 293.091 8.40085 293.593 8.68622L294.581 6.94731C293.667 6.42775 292.517 6.21307 291.214 6.21307V8.21307ZM293.605 8.69277C294.232 9.03768 294.656 9.40258 294.928 9.767L296.531 8.57107C296.046 7.92128 295.376 7.38467 294.57 6.94075L293.605 8.69277ZM294.939 9.78121C295.317 10.2704 295.597 10.6565 295.784 10.9456L297.461 9.85558C297.231 9.5007 296.914 9.06576 296.52 8.55686L294.939 9.78121ZM296.623 11.4006H296.913V9.40057H296.623V11.4006ZM297.913 10.4006V7.45454H295.913V10.4006H297.913ZM296.913 8.45454H299.665V6.45454H296.913V8.45454ZM298.665 7.45454V26.5312H300.665V7.45454H298.665ZM298.665 26.5312C298.665 27.9757 298.338 29.0482 297.77 29.8316L299.388 31.0064C300.268 29.7936 300.665 28.2743 300.665 26.5312H298.665ZM297.764 29.839C297.168 30.6762 296.365 31.2946 295.323 31.695L296.04 33.5621C297.428 33.0288 298.557 32.1742 299.393 30.999L297.764 29.839ZM295.315 31.698C294.24 32.121 293.022 32.3409 291.648 32.3409V34.3409C293.237 34.3409 294.708 34.0859 296.047 33.5592L295.315 31.698ZM291.552 24.1506C292.85 24.1506 294.018 23.8518 295.002 23.1991L293.897 21.5324C293.303 21.9261 292.54 22.1506 291.552 22.1506V24.1506ZM295.002 23.1991C295.976 22.5533 296.694 21.6347 297.171 20.4936L295.326 19.7223C294.982 20.5453 294.501 21.1318 293.897 21.5324L295.002 23.1991ZM297.171 20.4936C297.645 19.36 297.864 18.047 297.864 16.5824H295.864C295.864 17.8545 295.673 18.8919 295.326 19.7223L297.171 20.4936ZM297.864 16.5824C297.864 15.1472 297.648 13.8396 297.191 12.6784L295.33 13.4111C295.678 14.2944 295.864 15.3453 295.864 16.5824H297.864ZM297.191 12.6784C296.728 11.5028 296.025 10.5407 295.066 9.83616L293.882 11.4479C294.5 11.9025 294.988 12.5422 295.33 13.4111L297.191 12.6784ZM295.066 9.83616C294.075 9.10852 292.884 8.77273 291.552 8.77273V10.7727C292.538 10.7727 293.294 11.0165 293.882 11.4479L295.066 9.83616ZM291.552 8.77273C290.17 8.77273 288.939 9.12594 287.928 9.89418L289.138 11.4865C289.737 11.0313 290.519 10.7727 291.552 10.7727V8.77273ZM287.924 9.89712C286.969 10.6309 286.265 11.6071 285.803 12.7896L287.666 13.5173C288.009 12.6391 288.504 11.9732 289.142 11.4836L287.924 9.89712ZM285.8 12.7959C285.357 13.955 285.143 15.2212 285.143 16.5824H287.143C287.143 15.4322 287.323 14.4125 287.668 13.5109L285.8 12.7959ZM285.143 16.5824C285.143 17.9735 285.36 19.2444 285.82 20.3759L287.673 19.6227C287.328 18.7741 287.143 17.767 287.143 16.5824H285.143ZM285.824 20.385C286.3 21.5239 287.016 22.4524 287.98 23.134L289.135 21.501C288.505 21.0556 288.014 20.4387 287.669 19.6136L285.824 20.385ZM287.99 23.1406C288.995 23.8343 290.203 24.1506 291.552 24.1506V22.1506C290.519 22.1506 289.73 21.9115 289.125 21.4944L287.99 23.1406ZM305.425 25.5533L306.132 24.8462L306.132 24.8462L305.425 25.5533ZM308.491 22.4865L309.199 21.7794L309.199 21.7794L308.491 22.4865ZM308.83 25.1065L307.976 24.5859L307.971 24.5936L307.967 24.6014L308.83 25.1065ZM308.045 25.9034L308.559 26.7609L308.565 26.7572L308.045 25.9034ZM306.958 25.1932C306.631 25.1932 306.374 25.0879 306.132 24.8462L304.718 26.2604C305.329 26.8718 306.093 27.1932 306.958 27.1932V25.1932ZM306.132 24.8462C305.89 24.6044 305.785 24.3465 305.785 24.0199H303.785C303.785 24.8846 304.106 25.6489 304.718 26.2604L306.132 24.8462ZM305.785 24.0199C305.785 23.6933 305.89 23.4354 306.132 23.1936L304.718 21.7794C304.106 22.3908 303.785 23.1552 303.785 24.0199H305.785ZM306.132 23.1936C306.374 22.9518 306.631 22.8466 306.958 22.8466V20.8466C306.093 20.8466 305.329 21.168 304.718 21.7794L306.132 23.1936ZM306.958 22.8466C307.285 22.8466 307.543 22.9518 307.784 23.1936L309.199 21.7794C308.587 21.168 307.823 20.8466 306.958 20.8466V22.8466ZM307.784 23.1936C308.026 23.4354 308.131 23.6933 308.131 24.0199H310.131C310.131 23.1552 309.81 22.3908 309.199 21.7794L307.784 23.1936ZM308.131 24.0199C308.131 24.2346 308.079 24.4161 307.976 24.5859L309.683 25.6271C309.982 25.137 310.131 24.594 310.131 24.0199H308.131ZM307.967 24.6014C307.858 24.787 307.715 24.9335 307.524 25.0496L308.565 26.7572C309.035 26.4708 309.415 26.0861 309.693 25.6117L307.967 24.6014ZM307.53 25.0459C307.375 25.1391 307.193 25.1932 306.958 25.1932V27.1932C307.528 27.1932 308.071 27.0541 308.559 26.7609L307.53 25.0459ZM314.788 25.5533L315.495 24.8462L315.495 24.8462L314.788 25.5533ZM317.855 22.4865L318.562 21.7794L318.562 21.7794L317.855 22.4865ZM318.193 25.1065L317.339 24.5859L317.334 24.5936L317.33 24.6014L318.193 25.1065ZM317.408 25.9034L317.923 26.7609L317.929 26.7572L317.408 25.9034ZM316.321 25.1932C315.995 25.1932 315.737 25.0879 315.495 24.8462L314.081 26.2604C314.692 26.8718 315.457 27.1932 316.321 27.1932V25.1932ZM315.495 24.8462C315.253 24.6044 315.148 24.3465 315.148 24.0199H313.148C313.148 24.8846 313.469 25.6489 314.081 26.2604L315.495 24.8462ZM315.148 24.0199C315.148 23.6933 315.253 23.4354 315.495 23.1936L314.081 21.7794C313.469 22.3908 313.148 23.1552 313.148 24.0199H315.148ZM315.495 23.1936C315.737 22.9518 315.995 22.8466 316.321 22.8466V20.8466C315.457 20.8466 314.692 21.168 314.081 21.7794L315.495 23.1936ZM316.321 22.8466C316.648 22.8466 316.906 22.9518 317.148 23.1936L318.562 21.7794C317.95 21.168 317.186 20.8466 316.321 20.8466V22.8466ZM317.148 23.1936C317.389 23.4354 317.495 23.6933 317.495 24.0199H319.495C319.495 23.1552 319.173 22.3908 318.562 21.7794L317.148 23.1936ZM317.495 24.0199C317.495 24.2346 317.443 24.4161 317.339 24.5859L319.047 25.6271C319.346 25.137 319.495 24.594 319.495 24.0199H317.495ZM317.33 24.6014C317.221 24.787 317.078 24.9335 316.887 25.0496L317.929 26.7572C318.398 26.4708 318.778 26.0861 319.056 25.6117L317.33 24.6014ZM316.894 25.0459C316.738 25.1391 316.556 25.1932 316.321 25.1932V27.1932C316.892 27.1932 317.434 27.0541 317.923 26.7609L316.894 25.0459Z" fill="black"/>
</g>
<defs>
<filter id="filter0_b_7_136" x="-3.63965" y="-3.5" width="326.134" height="40.8409" filterUnits="userSpaceOnUse" color-interpolation-filters="sRGB">
<feFlood flood-opacity="0" result="BackgroundImageFix"/>
<feGaussianBlur in="BackgroundImage" stdDeviation="2"/>
<feComposite in2="SourceAlpha" operator="in" result="effect1_backgroundBlur_7_136"/>
<feBlend mode="normal" in="SourceGraphic" in2="effect1_backgroundBlur_7_136" result="shape"/>
</filter>
</defs>
</svg>
