<svg width="100" height="26" viewBox="0 0 100 26" fill="none" xmlns="http://www.w3.org/2000/svg">
<g filter="url(#filter0_b_7_138)">
<path d="M7.66992 25H0.0392402V0.272727H8.00799C10.4067 0.272727 12.4592 0.767755 14.1657 1.75781C15.8721 2.73982 17.1801 4.15246 18.0897 5.99574C18.9992 7.83097 19.454 10.0284 19.454 12.5881C19.454 15.1638 18.9952 17.3814 18.0776 19.2408C17.16 21.0921 15.8238 22.5168 14.0691 23.5149C12.3143 24.505 10.1813 25 7.66992 25ZM3.03356 22.3438H7.47674C9.52125 22.3438 11.2156 21.9493 12.5598 21.1605C13.9041 20.3717 14.9062 19.2488 15.5662 17.7919C16.2263 16.335 16.5563 14.6004 16.5563 12.5881C16.5563 10.5919 16.2303 8.87334 15.5783 7.43253C14.9263 5.98366 13.9524 4.87287 12.6564 4.10014C11.3605 3.31936 9.74663 2.92898 7.81481 2.92898H3.03356V22.3438ZM24.0904 25V6.45454H26.8432V9.25568H27.0364C27.3745 8.33807 27.9862 7.59351 28.8716 7.02202C29.757 6.45052 30.7551 6.16477 31.8659 6.16477C32.0752 6.16477 32.3368 6.1688 32.6507 6.17685C32.9647 6.1849 33.2021 6.19697 33.3631 6.21307V9.11079C33.2665 9.08665 33.0452 9.05043 32.699 9.00213C32.361 8.94579 32.0028 8.91761 31.6245 8.91761C30.723 8.91761 29.918 9.10677 29.2097 9.48508C28.5094 9.85535 27.954 10.3705 27.5435 11.0305C27.141 11.6825 26.9398 12.4271 26.9398 13.2642V25H24.0904ZM42.1982 25.4347C41.023 25.4347 39.9564 25.2133 38.9986 24.7706C38.0407 24.3198 37.2801 23.6719 36.7166 22.8267C36.1532 21.9735 35.8714 20.9432 35.8714 19.7358C35.8714 18.6733 36.0807 17.812 36.4993 17.152C36.9179 16.4839 37.4773 15.9607 38.1776 15.5824C38.8778 15.2041 39.6506 14.9223 40.4957 14.7372C41.349 14.544 42.2062 14.3911 43.0675 14.2784C44.1944 14.1335 45.108 14.0249 45.8082 13.9524C46.5166 13.8719 47.0317 13.7391 47.3537 13.554C47.6837 13.3688 47.8487 13.0469 47.8487 12.5881V12.4915C47.8487 11.3002 47.5227 10.3745 46.8707 9.71449C46.2268 9.05445 45.2488 8.72443 43.9368 8.72443C42.5765 8.72443 41.5099 9.02225 40.7372 9.6179C39.9645 10.2135 39.4212 10.8494 39.1072 11.5256L36.4027 10.5597C36.8857 9.43276 37.5296 8.5554 38.3345 7.92756C39.1475 7.29167 40.0329 6.84896 40.9908 6.59943C41.9567 6.34186 42.9065 6.21307 43.8402 6.21307C44.4358 6.21307 45.12 6.28551 45.8928 6.4304C46.6735 6.56723 47.4261 6.85298 48.1506 7.28764C48.883 7.7223 49.4908 8.37831 49.9737 9.25568C50.4567 10.133 50.6982 11.3082 50.6982 12.7812V25H47.8487V22.4886H47.7038C47.5107 22.8911 47.1887 23.3217 46.7379 23.7805C46.2872 24.2393 45.6875 24.6297 44.9389 24.9517C44.1903 25.2737 43.2768 25.4347 42.1982 25.4347ZM42.6328 22.875C43.7597 22.875 44.7095 22.6536 45.4822 22.2109C46.263 21.7682 46.8506 21.1967 47.245 20.4964C47.6475 19.7962 47.8487 19.0597 47.8487 18.2869V15.679C47.728 15.8239 47.4624 15.9567 47.0518 16.0774C46.6494 16.1901 46.1825 16.2907 45.6513 16.3793C45.1281 16.4598 44.617 16.5322 44.1179 16.5966C43.6269 16.6529 43.2285 16.7012 42.9226 16.7415C42.1821 16.8381 41.4898 16.995 40.8459 17.2124C40.21 17.4216 39.6948 17.7396 39.3004 18.1662C38.9141 18.5848 38.7209 19.1562 38.7209 19.8807C38.7209 20.8707 39.0871 21.6193 39.8196 22.1264C40.5601 22.6255 41.4979 22.875 42.6328 22.875ZM55.899 25V6.45454H58.6518V9.35227H58.8933C59.2797 8.36222 59.9035 7.59351 60.7647 7.04616C61.626 6.49077 62.6603 6.21307 63.8677 6.21307C65.0912 6.21307 66.1094 6.49077 66.9224 7.04616C67.7434 7.59351 68.3833 8.36222 68.8422 9.35227H69.0353C69.5102 8.39441 70.2226 7.63376 71.1724 7.07031C72.1222 6.49882 73.2612 6.21307 74.5893 6.21307C76.2475 6.21307 77.6038 6.73224 78.6582 7.7706C79.7127 8.8009 80.2399 10.4067 80.2399 12.5881V25H77.3904V12.5881C77.3904 11.2197 77.0162 10.2417 76.2676 9.65412C75.519 9.06652 74.6376 8.77273 73.6234 8.77273C72.3194 8.77273 71.3092 9.16714 70.5929 9.95597C69.8765 10.7367 69.5183 11.7268 69.5183 12.9261V25H66.6206V12.2983C66.6206 11.2438 66.2785 10.3946 65.5943 9.75071C64.9101 9.09872 64.0287 8.77273 62.9501 8.77273C62.2096 8.77273 61.5173 8.96993 60.8734 9.36435C60.2375 9.75876 59.7224 10.3061 59.3279 11.0064C58.9416 11.6986 58.7484 12.4995 58.7484 13.4091V25H55.899ZM90.9071 25.4347C89.7319 25.4347 88.6654 25.2133 87.7076 24.7706C86.7497 24.3198 85.9891 23.6719 85.4256 22.8267C84.8622 21.9735 84.5804 20.9432 84.5804 19.7358C84.5804 18.6733 84.7897 17.812 85.2083 17.152C85.6268 16.4839 86.1863 15.9607 86.8865 15.5824C87.5868 15.2041 88.3596 14.9223 89.2047 14.7372C90.0579 14.544 90.9152 14.3911 91.7765 14.2784C92.9033 14.1335 93.8169 14.0249 94.5172 13.9524C95.2256 13.8719 95.7407 13.7391 96.0627 13.554C96.3927 13.3688 96.5577 13.0469 96.5577 12.5881V12.4915C96.5577 11.3002 96.2317 10.3745 95.5797 9.71449C94.9358 9.05445 93.9578 8.72443 92.6458 8.72443C91.2855 8.72443 90.2189 9.02225 89.4462 9.6179C88.6735 10.2135 88.1301 10.8494 87.8162 11.5256L85.1117 10.5597C85.5946 9.43276 86.2386 8.5554 87.0435 7.92756C87.8565 7.29167 88.7419 6.84896 89.6998 6.59943C90.6657 6.34186 91.6155 6.21307 92.5492 6.21307C93.1448 6.21307 93.829 6.28551 94.6017 6.4304C95.3825 6.56723 96.1351 6.85298 96.8596 7.28764C97.592 7.7223 98.1998 8.37831 98.6827 9.25568C99.1657 10.133 99.4071 11.3082 99.4071 12.7812V25H96.5577V22.4886H96.4128C96.2196 22.8911 95.8977 23.3217 95.4469 23.7805C94.9962 24.2393 94.3965 24.6297 93.6479 24.9517C92.8993 25.2737 91.9857 25.4347 90.9071 25.4347ZM91.3418 22.875C92.4687 22.875 93.4185 22.6536 94.1912 22.2109C94.972 21.7682 95.5596 21.1967 95.954 20.4964C96.3565 19.7962 96.5577 19.0597 96.5577 18.2869V15.679C96.437 15.8239 96.1713 15.9567 95.7608 16.0774C95.3584 16.1901 94.8915 16.2907 94.3603 16.3793C93.8371 16.4598 93.3259 16.5322 92.8269 16.5966C92.3359 16.6529 91.9374 16.7012 91.6316 16.7415C90.891 16.8381 90.1988 16.995 89.5549 17.2124C88.919 17.4216 88.4038 17.7396 88.0094 18.1662C87.623 18.5848 87.4299 19.1562 87.4299 19.8807C87.4299 20.8707 87.7961 21.6193 88.5286 22.1264C89.2691 22.6255 90.2069 22.875 91.3418 22.875Z" fill="white"/>
</g>
<defs>
<filter id="filter0_b_7_138" x="-3.96094" y="-3.72729" width="107.368" height="33.162" filterUnits="userSpaceOnUse" color-interpolation-filters="sRGB">
<feFlood flood-opacity="0" result="BackgroundImageFix"/>
<feGaussianBlur in="BackgroundImage" stdDeviation="2"/>
<feComposite in2="SourceAlpha" operator="in" result="effect1_backgroundBlur_7_138"/>
<feBlend mode="normal" in="SourceGraphic" in2="effect1_backgroundBlur_7_138" result="shape"/>
</filter>
</defs>
</svg>
