<svg width="17" height="12" viewBox="0 0 17 12" fill="none" xmlns="http://www.w3.org/2000/svg">
<g clip-path="url(#clip0_15_262)">
<path d="M0 2C0 0.895431 0.895431 0 2 0H15C16.1046 0 17 0.895431 17 2V10C17 11.1046 16.1046 12 15 12H2C0.89543 12 0 11.1046 0 10V2Z" fill="#929292"/>
<path d="M6.09625 8.90625L2.96875 5.77875L1.90375 6.83625L6.09625 11.0288L15.0962 2.02875L14.0387 0.971252L6.09625 8.90625Z" fill="white"/>
</g>
<path d="M2 1H15C15.5523 1 16 1.44772 16 2V10C16 10.5523 15.5523 11 15 11H2C1.44772 11 1 10.5523 1 10V2C1 1.44772 1.44772 1 2 1Z" stroke="#929292" stroke-width="2"/>
<defs>
<clipPath id="clip0_15_262">
<path d="M0 2C0 0.895431 0.895431 0 2 0H15C16.1046 0 17 0.895431 17 2V10C17 11.1046 16.1046 12 15 12H2C0.89543 12 0 11.1046 0 10V2Z" fill="white"/>
</clipPath>
</defs>
</svg>
