<svg width="100" height="27" viewBox="0 0 100 27" fill="none" xmlns="http://www.w3.org/2000/svg">
<g filter="url(#filter0_b_6_41)">
<path d="M3.44407 26H0.304865L9.38441 1.27273H12.4753L21.5549 26H18.4157L11.0265 5.18466H10.8333L3.44407 26ZM4.60316 16.3409H17.2566V18.9972H4.60316V16.3409ZM32.5542 26.3864C30.8155 26.3864 29.3184 25.9759 28.0627 25.1548C26.807 24.3338 25.8411 23.2029 25.165 21.7621C24.4888 20.3213 24.1507 18.6752 24.1507 16.8239C24.1507 14.9403 24.4969 13.2782 25.1891 11.8374C25.8894 10.3885 26.8633 9.25758 28.111 8.4446C29.3667 7.62358 30.8316 7.21307 32.5059 7.21307C33.8098 7.21307 34.985 7.45455 36.0314 7.9375C37.0778 8.42045 37.9351 9.09659 38.6032 9.96591C39.2712 10.8352 39.6858 11.8494 39.8468 13.0085H36.9973C36.78 12.1634 36.2971 11.4148 35.5485 10.7628C34.8079 10.1027 33.8098 9.77273 32.5542 9.77273C31.4434 9.77273 30.4694 10.0625 29.6323 10.642C28.8032 11.2135 28.1552 12.0225 27.6884 13.0689C27.2296 14.1072 27.0002 15.3267 27.0002 16.7273C27.0002 18.16 27.2256 19.4077 27.6763 20.4702C28.1351 21.5327 28.7791 22.3577 29.6081 22.9453C30.4453 23.5329 31.4273 23.8267 32.5542 23.8267C33.2947 23.8267 33.9668 23.6979 34.5705 23.4403C35.1742 23.1828 35.6853 22.8125 36.1039 22.3295C36.5224 21.8466 36.8203 21.267 36.9973 20.5909H39.8468C39.6858 21.6856 39.2873 22.6716 38.6515 23.549C38.0236 24.4183 37.1905 25.1106 36.1522 25.6257C35.1219 26.1328 33.9225 26.3864 32.5542 26.3864ZM52.0776 7.45454V9.86932H42.4668V7.45454H52.0776ZM45.2679 3.01136H48.1174V20.6875C48.1174 21.4924 48.2341 22.0961 48.4675 22.4986C48.709 22.893 49.0149 23.1586 49.3851 23.2955C49.7634 23.4242 50.1619 23.4886 50.5804 23.4886C50.8944 23.4886 51.1519 23.4725 51.3532 23.4403C51.5544 23.4001 51.7154 23.3679 51.8361 23.3438L52.4157 25.9034C52.2225 25.9759 51.9528 26.0483 51.6067 26.1207C51.2606 26.2012 50.8219 26.2415 50.2907 26.2415C49.4857 26.2415 48.6969 26.0684 47.9242 25.7223C47.1595 25.3762 46.5236 24.849 46.0165 24.1406C45.5175 23.4323 45.2679 22.5388 45.2679 21.4602V3.01136ZM56.3638 26V7.45454H59.2132V26H56.3638ZM57.8127 4.36364C57.2573 4.36364 56.7784 4.17448 56.3759 3.79616C55.9815 3.41785 55.7843 2.96307 55.7843 2.43182C55.7843 1.90057 55.9815 1.44579 56.3759 1.06747C56.7784 0.689157 57.2573 0.5 57.8127 0.5C58.3681 0.5 58.843 0.689157 59.2374 1.06747C59.6399 1.44579 59.8411 1.90057 59.8411 2.43182C59.8411 2.96307 59.6399 3.41785 59.2374 3.79616C58.843 4.17448 58.3681 4.36364 57.8127 4.36364ZM71.9663 26.3864C70.292 26.3864 68.823 25.9879 67.5593 25.1911C66.3036 24.3942 65.3216 23.2794 64.6133 21.8466C63.913 20.4138 63.5629 18.7396 63.5629 16.8239C63.5629 14.892 63.913 13.2057 64.6133 11.7649C65.3216 10.3241 66.3036 9.20526 67.5593 8.40838C68.823 7.61151 70.292 7.21307 71.9663 7.21307C73.6405 7.21307 75.1055 7.61151 76.3612 8.40838C77.6249 9.20526 78.6069 10.3241 79.3072 11.7649C80.0155 13.2057 80.3697 14.892 80.3697 16.8239C80.3697 18.7396 80.0155 20.4138 79.3072 21.8466C78.6069 23.2794 77.6249 24.3942 76.3612 25.1911C75.1055 25.9879 73.6405 26.3864 71.9663 26.3864ZM71.9663 23.8267C73.238 23.8267 74.2844 23.5007 75.1055 22.8487C75.9265 22.1967 76.5342 21.3395 76.9286 20.277C77.323 19.2145 77.5202 18.0634 77.5202 16.8239C77.5202 15.5843 77.323 14.4292 76.9286 13.3587C76.5342 12.2881 75.9265 11.4228 75.1055 10.7628C74.2844 10.1027 73.238 9.77273 71.9663 9.77273C70.6945 9.77273 69.6481 10.1027 68.8271 10.7628C68.006 11.4228 67.3983 12.2881 67.0039 13.3587C66.6095 14.4292 66.4123 15.5843 66.4123 16.8239C66.4123 18.0634 66.6095 19.2145 67.0039 20.277C67.3983 21.3395 68.006 22.1967 68.8271 22.8487C69.6481 23.5007 70.6945 23.8267 71.9663 23.8267ZM87.5687 14.8438V26H84.7193V7.45454H87.4721V10.3523H87.7136C88.1483 9.41051 88.8083 8.65388 89.6937 8.08239C90.5791 7.50284 91.7221 7.21307 93.1227 7.21307C94.3784 7.21307 95.4771 7.47064 96.4189 7.98579C97.3606 8.4929 98.0931 9.26562 98.6163 10.304C99.1395 11.3343 99.4011 12.6383 99.4011 14.2159V26H96.5517V14.4091C96.5517 12.9522 96.1734 11.8172 95.4167 11.0043C94.6601 10.1832 93.6217 9.77273 92.3017 9.77273C91.3921 9.77273 90.5791 9.96993 89.8627 10.3643C89.1544 10.7588 88.595 11.3343 88.1845 12.0909C87.774 12.8475 87.5687 13.7652 87.5687 14.8438Z" fill="white"/>
</g>
<defs>
<filter id="filter0_b_6_41" x="-3.69519" y="-3.5" width="107.096" height="33.8864" filterUnits="userSpaceOnUse" color-interpolation-filters="sRGB">
<feFlood flood-opacity="0" result="BackgroundImageFix"/>
<feGaussianBlur in="BackgroundImage" stdDeviation="2"/>
<feComposite in2="SourceAlpha" operator="in" result="effect1_backgroundBlur_6_41"/>
<feBlend mode="normal" in="SourceGraphic" in2="effect1_backgroundBlur_6_41" result="shape"/>
</filter>
</defs>
</svg>
