<svg width="99" height="27" viewBox="0 0 99 27" fill="none" xmlns="http://www.w3.org/2000/svg">
<g filter="url(#filter0_b_7_139)">
<path d="M3.73509 26H0.595881L9.67543 1.27273H12.7663L21.8459 26H18.7067L11.3175 5.18466H11.1243L3.73509 26ZM4.89418 16.3409H17.5476V18.9972H4.89418V16.3409ZM28.1605 14.8438V26H25.3111V7.45454H28.0639V10.3523H28.3054C28.7401 9.41051 29.4001 8.65388 30.2855 8.08239C31.1709 7.50284 32.3139 7.21307 33.7145 7.21307C34.9702 7.21307 36.0689 7.47064 37.0107 7.98579C37.9524 8.4929 38.6849 9.26562 39.2081 10.304C39.7313 11.3343 39.9929 12.6383 39.9929 14.2159V26H37.1435V14.4091C37.1435 12.9522 36.7652 11.8172 36.0085 11.0043C35.2519 10.1832 34.2135 9.77273 32.8935 9.77273C31.9839 9.77273 31.1709 9.96993 30.4545 10.3643C29.7462 10.7588 29.1868 11.3343 28.7763 12.0909C28.3658 12.8475 28.1605 13.7652 28.1605 14.8438ZM45.1998 26V7.45454H48.0492V26H45.1998ZM46.6486 4.36364C46.0932 4.36364 45.6143 4.17448 45.2118 3.79616C44.8174 3.41785 44.6202 2.96307 44.6202 2.43182C44.6202 1.90057 44.8174 1.44579 45.2118 1.06747C45.6143 0.689157 46.0932 0.5 46.6486 0.5C47.204 0.5 47.6789 0.689157 48.0733 1.06747C48.4758 1.44579 48.677 1.90057 48.677 2.43182C48.677 2.96307 48.4758 3.41785 48.0733 3.79616C47.6789 4.17448 47.204 4.36364 46.6486 4.36364ZM53.2681 26V7.45454H56.021V10.3523H56.2624C56.6488 9.36222 57.2726 8.59351 58.1339 8.04616C58.9951 7.49077 60.0295 7.21307 61.2369 7.21307C62.4603 7.21307 63.4786 7.49077 64.2915 8.04616C65.1126 8.59351 65.7525 9.36222 66.2113 10.3523H66.4045C66.8794 9.39441 67.5917 8.63376 68.5415 8.07031C69.4914 7.49882 70.6303 7.21307 71.9585 7.21307C73.6166 7.21307 74.9729 7.73224 76.0273 8.7706C77.0818 9.8009 77.609 11.4067 77.609 13.5881V26H74.7596V13.5881C74.7596 12.2197 74.3853 11.2417 73.6367 10.6541C72.8881 10.0665 72.0067 9.77273 70.9925 9.77273C69.6886 9.77273 68.6784 10.1671 67.962 10.956C67.2456 11.7367 66.8874 12.7268 66.8874 13.9261V26H63.9897V13.2983C63.9897 12.2438 63.6476 11.3946 62.9634 10.7507C62.2792 10.0987 61.3978 9.77273 60.3192 9.77273C59.5787 9.77273 58.8865 9.96993 58.2425 10.3643C57.6067 10.7588 57.0915 11.3061 56.6971 12.0064C56.3107 12.6986 56.1175 13.4995 56.1175 14.4091V26H53.2681ZM90.5945 26.3864C88.8075 26.3864 87.2661 25.992 85.9702 25.2031C84.6823 24.4062 83.6882 23.2955 82.9879 21.8707C82.2957 20.438 81.9496 18.7718 81.9496 16.8722C81.9496 14.9725 82.2957 13.2983 82.9879 11.8494C83.6882 10.3925 84.6622 9.25758 85.9098 8.4446C87.1655 7.62358 88.6304 7.21307 90.3047 7.21307C91.2706 7.21307 92.2244 7.37405 93.1662 7.69602C94.108 8.01799 94.9652 8.54119 95.7379 9.26562C96.5107 9.98201 97.1264 10.9318 97.5852 12.1151C98.044 13.2983 98.2734 14.7552 98.2734 16.4858V17.6932H83.978V15.2301H95.3757C95.3757 14.1837 95.1664 13.25 94.7479 12.429C94.3374 11.608 93.7498 10.96 92.9851 10.4851C92.2285 10.0102 91.335 9.77273 90.3047 9.77273C89.1697 9.77273 88.1877 10.0545 87.3587 10.6179C86.5376 11.1733 85.9058 11.8977 85.4631 12.7912C85.0204 13.6847 84.799 14.6425 84.799 15.6648V17.3068C84.799 18.7074 85.0405 19.8946 85.5234 20.8686C86.0144 21.8345 86.6946 22.571 87.5639 23.0781C88.4332 23.5772 89.4434 23.8267 90.5945 23.8267C91.343 23.8267 92.0192 23.7221 92.6229 23.5128C93.2346 23.2955 93.7618 22.9735 94.2045 22.5469C94.6473 22.1122 94.9893 21.5729 95.2308 20.929L97.9837 21.7017C97.6939 22.6354 97.2069 23.4564 96.5227 24.1648C95.8385 24.8651 94.9934 25.4124 93.9872 25.8068C92.9811 26.1932 91.8501 26.3864 90.5945 26.3864Z" fill="white"/>
</g>
<defs>
<filter id="filter0_b_7_139" x="-3.4043" y="-3.5" width="105.678" height="33.8864" filterUnits="userSpaceOnUse" color-interpolation-filters="sRGB">
<feFlood flood-opacity="0" result="BackgroundImageFix"/>
<feGaussianBlur in="BackgroundImage" stdDeviation="2"/>
<feComposite in2="SourceAlpha" operator="in" result="effect1_backgroundBlur_7_139"/>
<feBlend mode="normal" in="SourceGraphic" in2="effect1_backgroundBlur_7_139" result="shape"/>
</filter>
</defs>
</svg>
